<?xml version="1.0" encoding="UTF-8" standalone="no"?>
<svg
   xmlns:dc="http://purl.org/dc/elements/1.1/"
   xmlns:cc="http://creativecommons.org/ns#"
   xmlns:rdf="http://www.w3.org/1999/02/22-rdf-syntax-ns#"
   xmlns:svg="http://www.w3.org/2000/svg"
   xmlns="http://www.w3.org/2000/svg"
   version="1.1"
   id="svg2"
   viewBox="0 0 37.999984 20.000003"
   height="5.6444454mm"
   width="10.72444mm">
  <defs
     id="defs4" />
  <metadata
     id="metadata7">
    <rdf:RDF>
      <cc:Work
         rdf:about="">
        <dc:format>image/svg+xml</dc:format>
        <dc:type
           rdf:resource="http://purl.org/dc/dcmitype/StillImage" />
        <dc:title></dc:title>
      </cc:Work>
    </rdf:RDF>
  </metadata>
  <g
     transform="translate(-268.6758,-595.67051)"
     id="layer1">
    <path
       id="path4151"
       d="m 277.19855,615.31011 -0.42623,-0.40631 0.003,-5.33048 c 0.003,-5.71368 0.0277,-5.90184 0.8459,-6.33962 0.54916,-0.29384 1.33606,-0.0234 1.61206,0.55403 0.28312,0.59238 0.25958,11.10444 -0.0257,11.47637 -0.11695,0.15246 -0.52079,0.3166 -0.89744,0.36475 -0.58325,0.0746 -0.74802,0.0273 -1.11103,-0.31874 z m 4.07793,0.12245 -0.36773,-0.24553 0,-8.83165 c 0,-10.15341 -0.0182,-9.52087 0.99547,-9.92115 1.96274,-0.70291 1.45035,8.59421 1.44633,9.68233 l 0.0426,9.25293 -0.42572,0.15431 c -0.61929,0.22445 -1.27089,0.18929 -1.69104,-0.0912 z m 3.88594,0.14702 c -0.0644,-0.0614 -0.11726,-4.3941 -0.11726,-9.62803 0,-11.00148 -0.16385,-10.03775 1.7396,-10.23207 2.29737,-0.23454 5.04619,0.38757 6.90248,1.56214 1.16504,0.7372 2.73532,2.32285 3.40146,3.43477 0.44545,0.74354 1.007,2.34839 1.27372,3.64013 0.0824,0.39886 0.12059,0.4167 0.54168,0.25282 0.24918,-0.097 1.09291,-0.18109 1.87493,-0.18692 1.27864,-0.01 1.53067,0.0405 2.50212,0.49638 4.58034,2.14956 4.51057,8.17746 -0.11849,10.23844 l -0.99273,0.442 -8.44513,0.0461 c -4.64481,0.0253 -8.49789,-0.005 -8.56238,-0.0658 z m -12.10104,-0.78025 c -0.22743,-0.2168 -0.26002,-1.01385 -0.26002,-6.36048 l 0,-6.11262 0.38295,-0.34295 c 0.50868,-0.45557 1.27806,-0.44578 1.73915,0.0221 0.35655,0.3618 0.35975,0.41937 0.35975,6.45558 0,6.86848 0.0532,6.58623 -1.24092,6.58623 -0.43477,0 -0.82411,-0.0984 -0.98091,-0.24786 z m -3.92309,-1.78835 c -0.38111,-0.29388 -0.39186,-0.37165 -0.44184,-3.2002 -0.0487,-2.75903 -0.0342,-2.91963 0.30156,-3.32654 0.40938,-0.49613 1.19098,-0.576 1.78106,-0.182 0.35902,0.23972 0.36774,0.31974 0.36774,3.37988 0,2.63911 -0.0411,3.17351 -0.26002,3.38221 -0.35621,0.33957 -1.27532,0.31154 -1.7485,-0.0534 z"
       style="fill:#000000" />
  </g>
</svg>
