<svg xmlns="http://www.w3.org/2000/svg" viewBox="0 0 299.656 299.656"><path d="M267.253 189.656c-18.334 21.116-49.84 30-80 30-23.88 0-45.804-8.376-63-22.344v98.694c10.62 2.384 21.66 3.65 33 3.65 59.496 0 110.9-34.64 135.148-84.85l-25.147-25.15z" fill="#fdebdb"/><path d="M275.77 198.174l-8.517-8.518c-18.334 21.116-49.84 30-80 30-23.88 0-45.804-8.376-63-22.344v40.026c15.984 7.882 33.973 12.318 53 12.318 40.8 0 76.837-20.366 98.518-51.482z" fill="#fdd473"/><path d="M280.388 235.282c4.518-6.474 8.553-13.31 12.014-20.477l-25.148-25.15c-3.66 4.217-7.86 7.93-12.456 11.195 9.03 12.786 16.483 22.6 25.59 34.432z" fill="#4a3827"/><path d="M87.253 119.656c0-40.996 24.682-76.208 59.986-91.644V0C69.065 5.154 7.252 70.18 7.252 149.656c0 79.37 61.646 144.33 139.668 149.64V211.18c-35.138-15.507-59.667-50.65-59.667-91.526z" fill="#fdd475"/><path d="M87.253 119.656c0-40.996 24.682-76.208 59.986-91.644V13.44C95.49 26.767 57.252 73.746 57.252 129.656c0 55.795 38.08 102.692 89.668 116.13V211.18c-35.138-15.505-59.667-50.647-59.667-91.524z" fill="#fd9071"/><path d="M147.24 28.013V0C120.843 1.74 96.316 10.316 75.4 23.962l33.544 33.545C119.05 44.8 132.17 34.6 147.24 28.013z" fill="#4a3818"/></svg>