<svg xmlns="http://www.w3.org/2000/svg" viewBox="0 0 821.22075 299.656" width="821.221" height="299.656"><path d="M260 189.656c-18.334 21.116-49.84 30-80 30-23.88 0-45.804-8.376-63-22.344v98.694c10.62 2.384 21.66 3.65 33 3.65 59.496 0 110.9-34.64 135.148-84.85L260 189.655z" fill="#fdebdb"/><path d="M268.518 198.174L260 189.656c-18.334 21.116-49.84 30-80 30-23.88 0-45.804-8.376-63-22.344v40.026c15.984 7.882 33.973 12.318 53 12.318 40.8 0 76.837-20.366 98.518-51.482z" fill="#fdd473"/><path d="M273.135 235.282c4.518-6.474 8.553-13.31 12.014-20.477L260 189.655c-3.66 4.217-7.858 7.93-12.455 11.195 9.03 12.786 16.483 22.6 25.59 34.432z" fill="#4a3827"/><path d="M80 119.656c0-40.996 24.682-76.208 59.986-91.644V0C61.813 5.154 0 70.18 0 149.656c0 79.37 61.646 144.33 139.668 149.64V211.18C104.528 195.675 80 160.532 80 119.656z" fill="#fdd475"/><path d="M80 119.656c0-40.996 24.682-76.208 59.986-91.644V13.44C88.236 26.767 50 73.746 50 129.656c0 55.795 38.08 102.692 89.668 116.13V211.18C104.528 195.676 80 160.534 80 119.657z" fill="#fd9071"/><path d="M139.987 28.013V0c-26.397 1.74-50.924 10.316-71.84 23.962l33.544 33.545C111.797 44.8 124.92 34.6 139.988 28.013z" fill="#4a3818"/><g style="line-height:125%;-inkscape-font-specification:'Hipstelvetica Light'" font-weight="300" font-size="135.844" font-family="Hipstelvetica" letter-spacing="0" word-spacing="0" fill="#1a1a1a"><path d="M146.2 148.974v7.743h54.34v7.88h-63.576V67.603h9.237v73.49h54.34v7.88H146.2z"/><path d="M249.322 67.603l38.036 96.993h-9.916l-55.832-30.293-11.683 30.293h-9.78l39.122-96.993h10.052zm24.044 86.67L244.024 76.84l-19.562 49.584 48.904 27.848zM338.107 67.468q5.977 0 11.682 1.222 5.84 1.223 9.916 3.94 4.21 2.852 6.928 7.335 2.58 4.347 2.58 11.41 0 3.94-1.22 7.337-1.224 3.532-3.533 6.52-2.173 2.99-5.297 5.027-2.99 2.036-6.792 2.85v.273q9.51 1.223 14.943 7.743 5.57 6.385 5.57 15.894 0 2.445-.408 5.298-.407 2.99-1.63 5.977-1.086 2.853-3.532 6.113-2.173 2.853-6.248 5.162-3.94 2.31-9.51 3.668-5.705 1.494-13.448 1.494h-41.16V67.468h41.16zm0 42.655q5.57 0 9.645-1.223 3.803-1.358 6.792-3.668 2.717-2.31 4.075-5.162t1.358-6.384q0-18.204-21.87-18.204h-31.925V91.92l31.924 18.203zm0 46.73q5.434 0 9.78-.95 4.348-.816 8.15-3.125 3.67-2.58 5.57-6.25 2.04-3.803 2.04-9.78 0-9.373-6.658-13.992-1.63-1.222-4.212-2.037-2.58-.952-5.705-1.496-2.99-.68-6.385-.95-3.26-.272-6.385-.272l-28.12-16.845v55.696h31.924zM427.352 67.603l38.037 96.993h-9.918l-55.832-30.293-11.682 30.293h-9.78L417.3 67.603h10.052zm24.045 86.67L422.054 76.84l-19.56 49.584 48.903 27.848zM551.457 67.603v96.993h-9.237l-57.734-57.462v57.462h-9.374V67.603h9.374l57.734 57.327V67.603h9.237zm-9.237 70.368l-57.734-57.325V94.23l57.734 57.325V137.97zM610.16 67.603l38.035 96.993h-9.916l-55.834-30.293-11.682 30.293h-9.78l39.122-96.993h10.053zm24.043 86.67L604.86 76.84l-19.56 49.584 48.903 27.848zM734.263 67.603v96.993h-9.237l-57.734-57.462v57.462h-9.373V67.603h9.372l57.734 57.327V67.603h9.237zm-9.237 70.368l-57.734-57.325V94.23l57.734 57.325V137.97zM821.22 156.717v7.88h-67.65v-97.13h66.972v8.015h-57.734v28.664h54.066v8.014h-54.066v7.744h54.066v7.88h-54.066v28.933h58.413z"/></g></svg>