<?xml version="1.0" encoding="UTF-8" standalone="no"?>
<svg
   xmlns:dc="http://purl.org/dc/elements/1.1/"
   xmlns:cc="http://creativecommons.org/ns#"
   xmlns:rdf="http://www.w3.org/1999/02/22-rdf-syntax-ns#"
   xmlns:svg="http://www.w3.org/2000/svg"
   xmlns="http://www.w3.org/2000/svg"
   xml:space="preserve"
   style="enable-background:new 0 0 299.656 299.656;"
   viewBox="0 0 299.656 299.656"
   y="0px"
   x="0px"
   id="Layer_1"
   version="1.1"><metadata
     id="metadata44"><rdf:RDF><cc:Work
         rdf:about=""><dc:format>image/svg+xml</dc:format><dc:type
           rdf:resource="http://purl.org/dc/dcmitype/StillImage" /><dc:title></dc:title></cc:Work></rdf:RDF></metadata><defs
     id="defs42" /><path
     id="XMLID_847_"
     style="fill:#fdebdb;fill-opacity:1"
     d="m 267.253,189.656 c -18.334,21.116 -49.84,30 -80,30 -23.881,0 -45.804,-8.376 -63,-22.344 l 0,98.694 c 10.619,2.384 21.661,3.65 33,3.65 59.496,0 110.9,-34.64 135.148,-84.851 l -25.148,-25.149 z" /><path
     id="XMLID_848_"
     style="fill:#fdd473;fill-opacity:1"
     d="m 275.771,198.174 -8.518,-8.518 c -18.334,21.116 -49.84,30 -80,30 -23.881,0 -45.804,-8.376 -63,-22.344 l 0,40.026 c 15.984,7.882 33.973,12.318 53,12.318 40.8,0 76.837,-20.366 98.518,-51.482 z" /><path
     id="XMLID_849_"
     style="fill:#4a3827;fill-opacity:1"
     d="m 280.388,235.282 c 4.518,-6.474 8.553,-13.309 12.014,-20.477 l -25.148,-25.149 c -3.66,4.216 -7.859,7.929 -12.456,11.194 9.031,12.786 16.483,22.601 25.59,34.432 z" /><path
     id="XMLID_850_"
     style="fill:#fdd475;fill-opacity:1"
     d="m 87.253,119.656 c 0,-40.996 24.682,-76.208 59.986,-91.644 L 147.239,0 C 69.066,5.154 7.253,70.18 7.253,149.656 c 0,79.369 61.646,144.33 139.668,149.639 l 0,-88.113 C 111.782,195.675 87.253,160.533 87.253,119.656 Z" /><path
     id="XMLID_851_"
     style="fill:#fd9071;fill-opacity:1"
     d="m 87.253,119.656 c 0,-40.996 24.682,-76.208 59.986,-91.644 l 0,-14.572 c -51.75,13.327 -89.986,60.306 -89.986,116.216 0,55.795 38.08,102.692 89.668,116.129 l 0,-34.604 C 111.782,195.675 87.253,160.533 87.253,119.656 Z" /><path
     id="XMLID_852_"
     style="fill:#4a3818;fill-opacity:1"
     d="M 147.24,28.013 147.24,0 C 120.843,1.741 96.316,10.316 75.399,23.962 l 33.545,33.545 C 119.049,44.801 132.171,34.601 147.24,28.013 Z" /><g
     id="g10" /><g
     id="g12" /><g
     id="g14" /><g
     id="g16" /><g
     id="g18" /><g
     id="g20" /><g
     id="g22" /><g
     id="g24" /><g
     id="g26" /><g
     id="g28" /><g
     id="g30" /><g
     id="g32" /><g
     id="g34" /><g
     id="g36" /><g
     id="g38" /></svg>