<svg xmlns="http://www.w3.org/2000/svg" height="300" width="827" viewBox="0 0 827 300"><g fill="#1a1a1a"><path d="M148.748 149.91v7.777h54.587v7.915H139.47V68.164h9.278v73.828h54.587v7.916h-54.587z"/><path d="M252.342 68.165l38.21 97.437h-9.96L224.5 135.17l-11.736 30.432h-9.825l39.303-97.437h10.1zm24.155 87.066L247.02 77.445l-19.652 49.81 49.13 27.977zM341.534 68.028q6.005 0 11.736 1.228 5.868 1.23 9.962 3.958 4.23 2.866 6.96 7.37 2.593 4.366 2.593 11.462 0 3.958-1.228 7.37-1.228 3.548-3.548 6.55-2.185 3.002-5.324 5.05-3.002 2.046-6.823 2.865v.274q9.553 1.228 15.01 7.78 5.597 6.413 5.597 15.965 0 2.456-.41 5.322-.41 3.002-1.637 6.004-1.092 2.866-3.55 6.14-2.182 2.867-6.276 5.187-3.958 2.32-9.553 3.685-5.73 1.5-13.51 1.5h-41.35V68.03h41.35zm0 42.85q5.595 0 9.69-1.227 3.82-1.364 6.823-3.684 2.73-2.32 4.094-5.186 1.365-2.865 1.365-6.414 0-18.286-21.97-18.286h-32.07v16.512l32.07 18.287zm0 46.946q5.46 0 9.826-.956 4.367-.818 8.188-3.138 3.684-2.593 5.595-6.278 2.047-3.82 2.047-9.825 0-9.417-6.687-14.057-1.638-1.228-4.23-2.047-2.593-.955-5.732-1.5-3-.683-6.413-.956-3.275-.273-6.414-.273l-28.25-16.922v55.952h32.07zM431.19 68.165l38.21 97.437h-9.963L403.35 135.17l-11.737 30.432h-9.825l39.302-97.437h10.1zm24.153 87.066l-29.477-77.786-19.65 49.81 49.127 27.977zM555.862 68.165v97.437h-9.28l-57.998-57.725v57.725h-9.416V68.165h9.416l57.998 57.59v-57.59h9.28zm-9.28 70.69l-57.998-57.59v13.647l57.998 57.59v-13.647zM614.833 68.165l38.21 97.437h-9.96l-56.09-30.432-11.735 30.432h-9.826l39.303-97.437h10.098zm24.155 87.066L609.51 77.445l-19.65 49.81 49.128 27.977zM739.507 68.165v97.437h-9.28l-58-57.725v57.725h-9.415V68.165h9.416l58 57.59v-57.59h9.28zm-9.28 70.69l-58-57.59v13.647l58 57.59v-13.647zM826.863 157.687v7.915h-67.96V68.028h67.277v8.052h-57.998v28.794h54.314v8.052h-54.314v7.78h54.314v7.914h-54.314v29.067h58.68z"/></g><g><path d="M260 190c-18.334 21.116-49.84 30-80 30-23.88 0-45.804-8.376-63-22.344v98.694c10.62 2.384 21.66 3.65 33 3.65 59.496 0 110.9-34.64 135.148-84.85L260 190z" fill="#fdebdb"/><path d="M268.518 198.518L260 190c-18.334 21.116-49.84 30-80 30-23.88 0-45.804-8.376-63-22.344v40.026C132.984 245.564 150.973 250 170 250c40.8 0 76.837-20.366 98.518-51.482z" fill="#fdd473"/><path d="M273.135 235.626c4.518-6.474 8.553-13.31 12.014-20.477L260 190c-3.66 4.216-7.858 7.93-12.455 11.194 9.03 12.786 16.483 22.6 25.59 34.432z" fill="#4a3827"/><path d="M80 120c0-40.996 24.682-76.208 59.986-91.644V.344C61.813 5.498 0 70.524 0 150c0 79.37 61.646 144.33 139.668 149.64v-88.114C104.528 196.02 80 160.876 80 120z" fill="#fdd475"/><path d="M80 120c0-40.996 24.682-76.208 59.986-91.644V13.784C88.236 27.11 50 74.09 50 130c0 55.795 38.08 102.692 89.668 116.13v-34.605C104.528 196.02 80 160.877 80 120z" fill="#fd9071"/><path d="M139.987 28.357V.344c-26.397 1.74-50.924 10.316-71.84 23.962L101.69 57.85c10.106-12.705 23.228-22.905 38.297-29.493z" fill="#4a3818"/></g></svg>