
<svg xmlns="http://www.w3.org/2000/svg" height="343.00705" width="826.86298"><g fill="#1a1a1a"><path d="M148.748 192.917043v7.777h54.587v7.915H139.47v-97.438h9.278v73.828h54.587v7.916h-54.587z"/><path d="M252.342 111.172043l38.21 97.437h-9.96l-56.092-30.432-11.736 30.432h-9.825l39.303-97.437h10.1zm24.155 87.066l-29.477-77.786-19.652 49.81 49.13 27.977zm65.037-87.203q6.005 0 11.736 1.228 5.868 1.23 9.962 3.958 4.23 2.866 6.96 7.37 2.593 4.366 2.593 11.462 0 3.958-1.228 7.37-1.228 3.548-3.548 6.55-2.185 3.002-5.324 5.05-3.002 2.046-6.823 2.865v.274q9.553 1.228 15.01 7.78 5.597 6.413 5.597 15.965 0 2.456-.41 5.322-.41 3.002-1.637 6.004-1.092 2.866-3.55 6.14-2.182 2.867-6.276 5.187-3.958 2.32-9.553 3.685-5.73 1.5-13.51 1.5h-41.35v-97.708h41.35zm0 42.85q5.595 0 9.69-1.227 3.82-1.364 6.823-3.684 2.73-2.32 4.094-5.186 1.365-2.865 1.365-6.414 0-18.286-21.97-18.286h-32.07v16.512l32.07 18.287zm0 46.946q5.46 0 9.826-.956 4.367-.818 8.188-3.138 3.684-2.593 5.595-6.278 2.047-3.82 2.047-9.825 0-9.417-6.687-14.057-1.638-1.228-4.23-2.047-2.593-.955-5.732-1.5-3-.683-6.413-.956-3.275-.273-6.414-.273l-28.25-16.922v55.952h32.07zm89.656-89.659l38.21 97.437h-9.963l-56.087-30.432-11.737 30.432h-9.825l39.302-97.437h10.1zm24.153 87.066l-29.477-77.786-19.65 49.81 49.127 27.977zm100.519-87.066v97.437h-9.28l-57.998-57.725v57.725h-9.416v-97.437h9.416l57.998 57.59v-57.59h9.28zm-9.28 70.69l-57.998-57.59v13.647l57.998 57.59v-13.647zm68.251-70.69l38.21 97.437h-9.96l-56.09-30.432-11.735 30.432h-9.826l39.303-97.437h10.098zm24.155 87.066l-29.478-77.786-19.65 49.81 49.128 27.977zm100.519-87.066v97.437h-9.28l-58-57.725v57.725h-9.415v-97.437h9.416l58 57.59v-57.59h9.28zm-9.28 70.69l-58-57.59v13.647l58 57.59v-13.647zm96.636 18.832v7.915h-67.96v-97.574h67.277v8.052h-57.998v28.794h54.314v8.052h-54.314v7.78h54.314v7.914h-54.314v29.067h58.68z"/></g><path d="M260 233.007043c-18.334 21.116-49.84 30-80 30-23.88 0-45.804-8.376-63-22.344v98.694c10.62 2.384 21.66 3.65 33 3.65 59.496 0 110.9-34.64 135.148-84.85l-25.148-25.15z" fill="#fdebdb"/><path d="M268.518 241.525043l-8.518-8.518c-18.334 21.116-49.84 30-80 30-23.88 0-45.804-8.376-63-22.344v40.026c15.984 7.882 33.973 12.318 53 12.318 40.8 0 76.837-20.366 98.518-51.482z" fill="#fdd473"/><path d="M273.135 278.633043c4.518-6.474 8.553-13.31 12.014-20.477l-25.149-25.149c-3.66 4.216-7.858 7.93-12.455 11.194 9.03 12.786 16.483 22.6 25.59 34.432z" fill="#4a3827"/><path d="M80 163.007043c0-40.996 24.682-76.208 59.986-91.644v-28.012C61.813 48.505043 0 113.531043 0 193.007043c0 79.37 61.646 144.33 139.668 149.64v-88.114c-35.14-15.506-59.668-50.65-59.668-91.526z" fill="#fdd475"/><path d="M80 163.007043c0-40.996 24.682-76.208 59.986-91.644v-14.572c-51.75 13.326-89.986 60.306-89.986 116.216 0 55.795 38.08 102.692 89.668 116.13v-34.605c-35.14-15.505-59.668-50.648-59.668-91.525z" fill="#fd9071"/><path d="M139.987 71.364043v-28.013c-26.397 1.74-50.924 10.316-71.84 23.962l33.543 33.544c10.106-12.705 23.228-22.905 38.297-29.493z" fill="#4a3818"/><g><path d="M37.67923115 82.73194293L19.53716262 72.0339028l-1.54005457-2.10910383c-6.14885586-8.42084328-1.07387003-21.51072755 8.73895461-22.54033848l2.17022997-.22771081 1.99453374-2.94401532C41.444251 28.65017926 50.99099129 17.76764656 58.886267 12.31152016 76.79928535-.06748473 97.4487448-3.22709427 117.40133799 3.35803074c8.435262 2.78395829 14.28617363 6.41575762 19.2891005 11.97320079 4.77583488 5.30517505 7.40372266 10.58117229 11.43893218 22.96587474 3.28721539 10.08898856 4.25118153 12.77498247 5.99561783 16.70615638 4.55067746 10.2551886 11.28760943 18.00124578 20.1686273 23.1896983l4.03802642 2.35908878 1.92738836-2.8481498c3.9770447-5.87698008 9.64105567-8.71645283 16.48274484-8.26310354 7.73367149.5124585 14.7636811 6.41691823 16.43207065 13.8011871 1.0378465 4.59349028.6602675 8.04944334-1.31320862 12.01964416-3.52229164 7.08607585-9.77673029 10.82811043-17.4838487 10.46059785-5.48767885-.26168191-10.22738994-2.864392-13.77792076-7.56584376-.2578691-.34145898-2.51073894-.24151356-6.4318711.28534198-16.10372341 2.16374584-30.54287386 1.90843447-38.50373738-.68082175l-2.25243028-.7325984-2.1693153 3.80413953-2.16931532 3.80413953 1.23781534 2.10466735c2.79022294 4.74424347 2.8089978 8.32849793.06574895 12.55158486-3.08783667 4.75355645-8.34108469 7.42756457-13.59377388 6.91949673l-2.61413783-.2528499-20.96608708-11.51985956c-23.03381154-12.65597094-28.74704885-15.9186744-55.52253496-31.70767567z" fill="#ede4e4"/><path d="M32.69154525 79.02225902L19.6601749 71.33626504l-1.44173923-2.12527862c-2.37510852-3.50116677-2.96369983-8.69034-1.42118165-12.52953289.71914623-1.78989159 1.04581669-1.86514719 1.68003963-.38700007.7007024 1.63309525 4.7142479 5.6218428 8.05352268 8.0037594 1.78787014 1.2752981 10.47236476 6.69485652 19.29887683 12.04346878 16.48347022 9.98851378 28.36826326 16.39691297 33.4179618 18.01930755 4.87414616 1.56598859 10.16930068.94992113 13.93942403-1.62179593 2.97169355-2.02708321 6.21749364-7.97225463 5.32345322-9.7506991-.37801013-.75194496-47.33035308-27.4069012-52.132493-29.5957409-5.40588367-2.46402993-9.99323145-4.06821277-13.68726923-4.7863987-1.60469006-.31198384-3.00282906-.7236006-3.106974-.91470664-.27772851-.50963344 1.1607284-2.87133757 5.07528273-8.3327595C47.5197169 21.41626984 55.36468222 13.76088683 67.01430529 7.78556335c16.14635058-8.28178338 32.49426907-9.67117558 50.068309-4.25524978 3.36375404 1.03663035 5.1524239 1.85454118 9.56742007 4.3749056 6.54725733 3.73776109 9.1335438 6.08905447 12.99735998 11.81736492 3.03805278 4.50407908 5.15499938 9.33281385 8.18381619 18.66720142 1.25470704 3.86683503 2.79475163 8.49530667 3.42231821 10.28549799 4.87462917 13.9053253 11.56979837 22.67246808 22.94995062 30.05233618 4.26926436 2.76855994 4.55841005 2.80376701 5.54082926.67467412.89957338-1.94954568 1.42365946-1.85839364 1.84197193.32036929.80989079 4.21827215 4.56633532 8.38294395 8.99028884 9.96730012 5.17265951 1.85249276 11.26777208 1.28249286 15.09718444-1.41185086 2.3318651-1.64067858 4.28085229-4.48104398 4.68771798-6.83167383.17728273-1.0242361.43452656-1.89295513.57165666-1.9304851.44477655-.12173009 1.5014191 2.59945221 1.88386953 4.85155132.82182343 4.83936102-.57225018 10.2699239-3.60236763 14.03288336-6.88639988 8.55190854-19.06934184 8.9723086-26.78628194.92432445l-2.07500876-2.16402285-3.7668038.60028452c-16.37411152 2.60940797-31.91879773 2.54971975-40.4863783-.15546288-1.29863506-.41003843-2.57249182-.64415175-2.8307963-.52024657-.25830248.12390166-1.46578459 1.96651621-2.68329246 4.09469706l-2.21365003 3.86942598 1.11190717 1.62427708c1.3700556 2.00137876 2.41041333 4.9280187 2.34226054 6.58902412-.28544437 6.95668579-8.50488743 13.46608085-15.52157079 12.29232248-1.69392038-.28336074-4.0470948-1.45403453-15.80670701-7.86361815-15.395354-8.39124737-47.90758573-26.93246076-67.80672597-38.6691919z" fill="#dcd3d3"/><path d="M125.36548385 101.83415033c-2.67945038-2.81209172-9.07038704-7.85763626-15.71523015-12.40692468-6.63684554-4.54381762-54.71851124-32.35156685-61.3813843-35.49956477-6.42550357-3.03584747-11.48216824-4.89450756-15.33783008-5.63766839-1.61650163-.31157258-3.03065913-.73452973-3.14257728-.93990405-.2103116-.38591442.51086406-1.488376 6.285738-9.60902282 7.01165626-9.85981102 14.76445583-18.66800683 20.31514593-23.08067778 7.42503719-5.9027285 17.66334137-10.61779886 27.99968947-12.89476443 18.36158346-4.04482545 40.65260171 1.68545974 51.30758772 13.18947991 5.775599 6.2358239 7.0898819 9.0538052 14.5348771 31.16448282 5.51287562 16.37254104 11.79919117 24.99404261 23.76492935 32.59291197l4.57025749 2.90234988-.37846127 2.81172387c-.51148531 3.79999301-.19867511 6.81446925 1.00065068 9.64313368.55054477 1.29848008.90705767 2.52558137.79224933 2.72689448-.2306543.40445394-1.19235548.57514717-8.5251497 1.51312905-14.19897027 1.8162756-26.7605644 1.58042659-34.39275857-.64573453-1.74672173-.50948634-3.37355565-.87223278-3.61518549-.80610316-.24162984.06612962-1.46507432 1.81411178-2.71876539 3.8844064-1.30261481 2.1510797-2.44710538 3.70920574-2.67068505 3.6359118-.21518424-.07054043-1.42707937-1.21536796-2.69309779-2.54405925z" fill="#ed9ea5"/><path d="M125.57595063 101.46507306c-2.73061482-2.83058753-9.19995052-7.92352334-15.72909648-12.38260852-6.81716915-4.65579105-54.3438386-32.14575737-61.15137068-35.37064682-6.68847302-3.16848933-11.68794799-5.02504216-15.52172196-5.7639874-2.26112314-.4358188-2.89950986-.6870427-2.83398153-1.11524108.21857813-1.42835978 10.57669109-15.38484522 16.49595343-22.22659105C56.90870481 12.96320322 67.58887587 6.3293413 82.16106094 2.66409238 93.63413946-.22165852 105.2368415.2660096 117.34189988 4.14276228c5.98503407 1.9167628 13.14907916 6.07869144 16.99955722 9.87584739 6.19233737 6.10657533 9.00920154 11.79950807 14.7853695 29.8814885 2.46147988 7.7055275 5.49510019 14.68464417 8.28858982 19.06865804 4.19179121 6.57846192 11.02691654 13.10485712 17.72512483 16.92451875 3.118041 1.77806676 3.07888352 1.70253758 2.51686419 4.85460432-.470014 2.6360692.08266355 6.8779029 1.23336229 9.46615083.49694766 1.11778162.81251335 2.18938822.70124974 2.38135001-.22511622.38825196-5.13427672 1.15750629-12.04841628 1.88785343-11.1885528 1.18185587-22.66942039.83827947-29.35332393-.87842635-2.11641344-.54358765-4.15657038-.99695454-4.53367698-1.00749094-.5277734-.0147417-1.18652963.80526881-2.86094814 3.56126284-1.19641186 1.96923013-2.33997808 3.60814703-2.54125672 3.64203483-.20127513.0338898-1.4065793-1.0171031-2.6784448-2.33554087z" fill="#ed7a84"/><path d="M124.8147919 100.29440963c-7.59971395-7.29408289-14.78739078-12.00864413-45.62567359-29.92693361-30.46999597-17.704303-36.79344597-20.8695274-45.4061086-22.72819762-1.5588455-.33640747-2.86951583-.74045494-2.91260129-.89788412-.0974686-.35613879 6.65102406-9.96993864 10.18964369-14.51601294 7.50449027-9.64103612 14.58746516-16.68037413 20.4691186-20.34300523C74.02487584 4.10102588 86.9283158.55055617 99.97439854 1.30389926c10.19336135.58861025 18.2368099 2.8252069 26.07347958 7.25009594 6.09444533 3.4411401 9.1968585 6.25301336 12.85830977 11.65403219 3.0489812 4.49756979 5.13775124 9.27948408 8.258348 18.90623896 4.56184701 14.07286498 6.81044544 19.39151917 10.63254152 25.14934971 3.96316437 5.9703451 10.84321514 12.38726578 17.11736057 15.96510503l2.79909938 1.59618992-.42943473 2.52257915c-.48714664 2.86156439-.05274495 6.5157785 1.1628502 9.7819874.68466474 1.83965045.70324847 2.27237092.10724341 2.49717729-.3965089.14955662-3.31352528.60409554-6.48225348 1.01008014-15.05316294 1.92864628-26.48969131 1.73840302-34.92904805-.58103797-2.0821264-.57224753-3.92674083-1.00206462-4.0991423-.95515064-.17240496.04691197-1.35165098 1.72264782-2.62054921 3.7238591l-2.3070846 3.63856057-3.3013267-3.16855642z" fill="#ec414f"/><path d="M125.94373652 101.05125475c-4.5148143-4.95050444-13.6756687-11.43466279-28.902628-20.45761562-6.10886775-3.61989943-11.43450827-6.86959053-11.83475435-7.22154267-.63453866-.55796883-.6179378-.76927393.12963229-1.65018274.47154813-.55564615 2.4868584-3.52423045 4.47846894-6.5968515 5.69154517-8.78079623 10.67059745-19.23025864 14.3939546-30.20835827 1.45970025-4.30383414 2.01487959-5.17955202 2.53320407-3.99578626.14377803.32836737 1.16393277 2.70836545 2.26700865 5.2888861 4.6256056 10.82109368 11.8881266 21.87002119 21.45462032 32.6402503 8.78405242 9.88934246 15.2880333 14.0857119 26.86385186 17.33255594 4.86524112 1.36463022 9.51840573 2.14595715 14.87071071 2.49699248 2.29469743.15049728 4.26223457.324991 4.37230736.38776014.29611125.1688578 2.36309044 7.39089015 2.12883513 7.43815927-6.7519389 1.3624075-21.2852616 2.43465154-28.45225846 2.09915255-6.72453457-.31478081-9.1314603-.65479882-13.61918214-1.92393084l-3.5990288-1.01781015-2.33009275 3.8558246c-1.6735695 2.76941586-2.4446556 3.77742728-2.73669544 3.57758573-.22363696-.15302381-1.13171043-1.07331963-2.01795399-2.04508906z" fill="#de3547"/><path d="M125.11367933 99.83295694c-5.49506811-5.38880257-13.77668034-11.1782916-29.01268636-20.28211615l-10.84288614-6.47885053 1.89920193-2.67494111c1.04456534-1.47121982 4.18332312-6.70120411 6.97502278-11.62218883 5.2833494-9.31307806 7.85450786-14.92630283 10.51962435-22.9659279.70300817-2.12070197 1.40456974-3.89040854 1.55902552-3.93267728.15445777-.04227223.56088053.7354274.90316186 1.72822203 1.48547182 4.3086267 6.38970187 13.41730549 10.71469467 19.9005082 8.25168642 12.36935755 16.5454935 21.61541923 23.84757539 26.5856445 7.4843431 5.09428162 19.45043182 8.6369711 31.38710366 9.29249977l3.37710378.18546178 1.0743973 3.3732266c.6004676 1.88527024.85865083 3.39077456.5853019 3.41300599-.26900216.02187281-2.74146173.34277034-5.49435115.713105-14.8735241 2.00085894-27.02068595 1.82066342-35.50818688-.52674732-2.15025496-.5947006-4.14357957-.95746236-4.42961552-.8061325-.28603594.15132986-1.39924133 1.81126582-2.47378959 3.68875082-1.07440107 1.87756892-2.05934834 3.32399063-2.18844271 3.21445447-.12908438-.10955368-1.4306088-1.3719176-2.8922548-2.80529754z" fill="#d2293e"/></g></svg>
