<svg xmlns="http://www.w3.org/2000/svg" width="29" viewBox="0 0 840.4 275.2" height="18"><g fill="#201d1c"><path d="M551.2 103.2c-35 0-53 27.6-53 69.2 0 39.3 19.4 68.8 53 68.8 38 0 52.3-34.8 52.3-68.8 0-35.6-18-69.2-52.3-69.2M458 0h41.7v99.8h.7c11.4-19 35-30.6 56.3-30.6 59.6 0 88.4 46.8 88.4 104 0 52.5-25.3 102-81.3 102-25.5 0-53-6.4-65.4-32.2h-.7v27H458V0m340.8 140c-3.3-24-20-36.8-43.2-36.8-21.5 0-51.8 11.7-51.8 71 0 32.6 13.8 67 50 67 24 0 41-16.7 45-44.7h41.6c-7.7 50.7-38 78.7-86.6 78.7-59.2 0-91.7-43.5-91.7-101 0-59 31.3-105 93.4-105 43.8 0 81 22.7 85 70.7H799"/><path d="M312.4 269.3H0L146 0h312.3l-146 269.3"/></g></svg>
