<svg xmlns="http://www.w3.org/2000/svg" viewBox="0 0 38 20" height="20" width="38"><path d="M8.523 19.64l-.426-.407.003-5.33c.003-5.714.027-5.902.845-6.34.55-.294 1.336-.023 1.612.554.284.593.26 11.105-.025 11.477-.117.152-.52.316-.898.364-.583.075-.748.028-1.11-.318zm4.078.122l-.367-.245v-8.832c0-10.154-.018-9.52.995-9.92 1.963-.704 1.45 8.593 1.447 9.68l.042 9.254-.425.153c-.62.225-1.27.19-1.69-.09zm3.887.147c-.065-.062-.118-4.395-.118-9.63 0-11-.164-10.037 1.74-10.23 2.296-.236 5.045.387 6.9 1.56 1.166.738 2.737 2.324 3.403 3.436.445.743 1.007 2.348 1.274 3.64.082.4.12.417.54.253.25-.098 1.094-.182 1.876-.188 1.28-.01 1.53.04 2.502.496 4.58 2.15 4.51 8.178-.118 10.24l-.993.44-8.445.047c-4.646.025-8.5-.005-8.563-.066zm-12.1-.78c-.23-.218-.26-1.015-.26-6.362V6.656l.382-.343c.507-.456 1.277-.446 1.738.022.356.362.36.42.36 6.455 0 6.87.053 6.587-1.242 6.587-.434 0-.824-.1-.98-.248zM.46 17.34c-.38-.293-.39-.37-.44-3.2-.05-2.76-.036-2.92.3-3.326.41-.496 1.19-.576 1.78-.182.36.24.37.32.37 3.38 0 2.64-.042 3.173-.26 3.382-.357.34-1.276.31-1.75-.054z" fill="#1a1a1a"/></svg>