<svg xmlns="http://www.w3.org/2000/svg" width="29" viewBox="0 0 29 20" height="20"><path fill='#1a1a1a' d="M26.774 1.34C26.2.816 25.472.474 24.676.387c-1.73-.194-3.473-.29-5.224-.34-1.74-.05-3.486-.05-5.23-.048-1.74 0-3.488 0-5.227.048-1.75.05-3.496.146-5.226.34-.796.087-1.523.43-2.097.95-.57.52-.99 1.215-1.172 2.015C.254 4.426.13 5.545.066 6.67.002 7.8 0 8.92 0 10c0 1.084 0 2.198.062 3.33.062 1.125.185 2.244.433 3.317.184.8.603 1.496 1.173 2.014.574.523 1.3.865 2.095.953 1.73.193 3.475.29 5.226.34 1.738.048 3.485.048 5.228.047 1.743 0 3.49 0 5.23-.048 1.75-.05 3.494-.146 5.224-.34.795-.087 1.52-.43 2.095-.95.57-.518.99-1.215 1.175-2.015.247-1.073.37-2.192.432-3.317.06-1.11.062-2.236.062-3.33v-.054c0-2.17 0-4.47-.488-6.593-.184-.8-.604-1.496-1.174-2.014zM10.326 14.32V4.617l.442.23 4.01 2.094 4.836 2.524.514.268-.515.267-4.423 2.295-4.423 2.292-.44.23v-.498z"/><path fill="none" d="M-271.99-1532.89h2048v2048h-2048z"/></svg>