<?xml version="1.0" encoding="UTF-8" standalone="no"?>
<svg
   xmlns:dc="http://purl.org/dc/elements/1.1/"
   xmlns:cc="http://creativecommons.org/ns#"
   xmlns:rdf="http://www.w3.org/1999/02/22-rdf-syntax-ns#"
   xmlns:svg="http://www.w3.org/2000/svg"
   xmlns="http://www.w3.org/2000/svg"
   id="svg2"
   height="152.38699"
   width="208.5004"
   version="1.1">
  <metadata
     id="metadata50">
    <rdf:RDF>
      <cc:Work
         rdf:about="">
        <dc:format>image/svg+xml</dc:format>
        <dc:type
           rdf:resource="http://purl.org/dc/dcmitype/StillImage" />
        <dc:title></dc:title>
      </cc:Work>
    </rdf:RDF>
  </metadata>
  <defs
     id="defs48" />
  <g
     transform="translate(-109.78285,18.368121)"
     id="g4321">
    <path
       d="m 137.31213,33.551311 c -2.13868,-0.438706 -3.96663,-0.365588 -5.48382,0.219353 -1.51719,0.584941 -2.70535,1.462352 -3.58276,2.632234 -0.82257,1.169881 -1.31611,2.504277 -1.46235,4.021468 -0.14624,1.51719 0.0731,2.997822 0.65806,4.460174 0.63978,1.407513 1.62687,2.705351 2.99782,3.875233 1.37096,1.115043 3.14406,1.901057 5.33759,2.339763 l 3.72899,-10.967641 c 0.53011,-1.553749 1.11505,-3.198895 1.75483,-4.898879 0.63977,-1.699984 1.37095,-3.345131 2.19352,-4.89888 0.82258,-1.608587 1.77311,-3.070939 2.85159,-4.387056 1.11504,-1.370955 2.41288,-2.485998 3.87523,-3.36341 1.02365,-0.58494 2.12041,-1.041925 3.2903,-1.389234 1.16988,-0.347309 2.3946,-0.511823 3.65588,-0.511823 1.26127,0 2.54083,0.201073 3.80211,0.584941 1.26128,0.383867 2.486,1.023646 3.65588,1.901057 1.66343,1.261279 2.61396,2.942984 2.85159,5.045115 0.29247,2.047293 0.0731,4.240821 -0.65806,6.580584 -0.73118,2.284925 -1.90106,4.551571 -3.50965,6.799937 -1.60858,2.248367 -3.43652,4.149424 -5.48382,5.703174 -2.24836,1.699984 -4.6064,3.144057 -7.0924,4.313938 -2.486,1.115044 -5.13652,1.82794 -7.96982,2.120411 -0.82258,2.102131 -1.68171,4.021468 -2.55912,5.77629 -0.87741,1.699985 -1.80966,3.272013 -2.77847,4.679527 1.40752,1.407514 2.83331,2.687072 4.24082,3.802115 1.46236,1.115044 3.1989,1.681705 5.19135,1.681705 1.46236,0 2.86987,-0.347308 4.24082,-1.023646 1.40752,-0.676338 2.72364,-1.590308 3.94836,-2.705351 1.26127,-1.169882 2.41288,-2.504278 3.43652,-4.021469 1.07849,-1.553749 1.97418,-3.198895 2.70535,-4.898879 0.29247,-0.639779 0.58494,-1.151602 0.87742,-1.53547 0.3473,-0.438705 0.60322,-0.658058 0.80429,-0.658058 0.20107,-0.05484 0.29247,0.0914 0.29247,0.438705 0,0.347309 -0.16452,0.93225 -0.51182,1.754823 -0.87742,1.955896 -1.88278,3.875233 -2.99783,5.776291 -1.11504,1.846219 -2.35804,3.527924 -3.72899,5.045114 -1.37096,1.462352 -2.85159,2.650513 -4.46018,3.582763 -1.60858,0.932249 -3.34513,1.389234 -5.19135,1.389234 -2.43116,0 -4.51501,-0.584941 -6.21499,-1.754822 -1.69999,-1.22472 -3.30858,-2.577396 -4.82577,-4.094586 -3.50964,3.802115 -7.58595,5.703173 -12.21064,5.703173 -2.28492,0 -4.1677,-0.365588 -5.63005,-1.096764 -1.40751,-0.786014 -2.43116,-1.699984 -3.07094,-2.778469 -0.63978,-1.115043 -0.89569,-2.339763 -0.80429,-3.65588 0.0914,-1.316117 0.56666,-2.504278 1.38923,-3.582763 0.82257,-1.115043 1.97418,-2.047293 3.43653,-2.778469 1.46235,-0.786014 3.23545,-1.169881 5.33758,-1.169881 1.80966,0 3.38169,0.237632 4.75265,0.731176 1.40751,0.438705 2.68707,1.005367 3.80211,1.681705 0.53011,-0.968809 1.02365,-2.029014 1.46235,-3.144057 0.49355,-1.115044 0.95053,-2.284925 1.38924,-3.509645 -3.30857,-0.639779 -5.97736,-1.699985 -7.96982,-3.217175 -1.99245,-1.51719 -3.45481,-3.235454 -4.38706,-5.19135 -0.87741,-1.992455 -1.243,-4.039747 -1.09676,-6.141879 0.14624,-2.138689 0.7129,-4.094585 1.6817,-5.849408 0.96881,-1.809661 2.32149,-3.290292 4.02147,-4.460174 1.69999,-1.169881 3.67416,-1.80966 5.92253,-1.901057 1.26128,-0.05484 2.32148,0.146235 3.14406,0.58494 0.87741,0.383868 1.51719,0.93225 1.90105,1.608588 0.38387,0.676338 0.51183,1.462352 0.36559,2.339763 -0.14623,0.822573 -0.58494,1.626867 -1.31612,2.412881 m 6.36124,17.548225 c 2.486,-0.383867 4.80748,-1.096764 6.94617,-2.120411 2.13869,-1.078484 4.14942,-2.358042 5.99564,-3.875233 1.69999,-1.407513 3.1989,-3.089218 4.46018,-5.045114 1.26127,-1.955896 2.19352,-3.875233 2.77847,-5.776291 0.63977,-1.901058 0.87741,-3.637601 0.73117,-5.19135 -0.14623,-1.608587 -0.78601,-2.760189 -1.90106,-3.436527 -1.26128,-0.786014 -2.70535,-1.041926 -4.31394,-0.804294 -1.60858,0.201074 -2.97954,0.786014 -4.09458,1.754823 -1.07849,0.932249 -2.04729,2.175248 -2.92471,3.728997 -0.82257,1.517191 -1.62686,3.272013 -2.41288,5.264468 -0.73117,1.955896 -1.48063,4.094586 -2.26664,6.434349 -0.73118,2.284925 -1.51719,4.679527 -2.33977,7.165525 l -0.65805,1.901058 m -21.27723,17.475107 c 1.75483,-0.146235 3.2903,-0.731176 4.60641,-1.754822 1.37096,-1.023647 2.5774,-2.394602 3.65588,-4.094586 -0.96881,-0.786014 -2.04729,-1.407514 -3.21717,-1.901058 -1.16988,-0.530102 -2.486,-0.804293 -3.94835,-0.804293 -1.90106,0 -3.43653,0.493543 -4.60641,1.462352 -1.16988,0.932249 -1.84622,1.955896 -2.04729,3.070939 -0.20108,1.078485 0.14623,2.047293 1.02364,2.924704 0.87741,0.877411 2.3946,1.243 4.53329,1.096764"
       id="path8"
       style="fill:#1a1a1a;fill-opacity:1" />
    <path
       d="m 166.13875,72.669229 c -1.75482,-0.05484 -3.08922,-0.859132 -4.02147,-2.412881 -0.93225,-1.553749 -1.46235,-3.509645 -1.60859,-5.849408 -0.20107,-2.339763 0,-4.8806 0.58495,-7.604231 0.58494,-2.778469 1.53547,-5.355864 2.85158,-7.750466 1.37096,-2.43116 3.05266,-4.515012 5.04512,-6.214996 2.04729,-1.754823 4.44189,-2.778469 7.16552,-3.07094 1.9559,-0.237632 3.729,0 5.33759,0.731176 1.66342,0.676338 2.76019,1.608588 3.29029,2.778469 0.29247,0.584941 0.45698,1.297838 0.51182,2.120411 0.0548,0.822573 -0.0914,1.608587 -0.4387,2.339763 -0.34731,0.731176 -0.93225,1.316117 -1.75483,1.754823 -0.82257,0.438705 -1.97417,0.566661 -3.43652,0.365588 0.0914,-1.169882 -0.20108,-2.120411 -0.87741,-2.851587 -0.67634,-0.731176 -1.69999,-1.041926 -3.07094,-0.950529 -1.40752,0.146235 -2.76019,0.822573 -4.02147,2.047293 -1.22472,1.22472 -2.28493,2.705352 -3.21718,4.460174 -0.87741,1.754823 -1.60858,3.637601 -2.19352,5.630056 -0.58495,1.992454 -0.95053,3.856953 -1.09677,5.556937 -0.14623,1.663426 -0.0731,3.05266 0.21935,4.167704 0.29247,1.115043 0.87742,1.681705 1.75483,1.681705 1.02364,0 2.06557,-0.658059 3.14405,-1.974176 1.07849,-1.316116 2.06558,-2.869866 2.99783,-4.679526 0.93224,-1.84622 1.75482,-3.728998 2.48599,-5.630056 0.73118,-1.955896 1.31612,-3.509645 1.75483,-4.679526 0.29247,-0.822573 0.87741,-1.334397 1.75482,-1.53547 0.87741,-0.201073 1.75482,-0.146235 2.63223,0.146235 0.87741,0.292471 1.59031,0.786014 2.12041,1.462352 0.58494,0.676338 0.7129,1.480632 0.36559,2.412881 -0.49354,1.316117 -1.09676,2.796749 -1.82794,4.460174 -0.67634,1.663425 -1.26128,3.217175 -1.75482,4.679527 -0.43871,1.462352 -0.65806,2.705351 -0.65806,3.728997 0.0548,1.023647 0.58494,1.53547 1.60859,1.53547 0.96881,0 1.99245,-0.530102 3.07094,-1.608587 1.07848,-1.115044 2.06557,-2.394602 2.99782,-3.802116 0.96881,-1.462352 1.80966,-2.869866 2.486,-4.240821 0.67634,-1.370955 1.1516,-2.321484 1.38923,-2.851586 0.20108,-0.493544 0.43871,-0.877411 0.73118,-1.169882 0.29247,-0.29247 0.51182,-0.438705 0.65806,-0.438705 0.20107,0 0.31075,0.146235 0.36558,0.438705 0.0548,0.237632 -0.0548,0.639779 -0.29247,1.169882 -0.20107,0.383867 -0.49354,1.041926 -0.87741,1.974175 -0.34731,0.93225 -0.78601,1.974175 -1.31611,3.144057 -0.53011,1.169882 -1.16989,2.394602 -1.90106,3.65588 -0.73118,1.22472 -1.53547,2.339764 -2.41288,3.36341 -0.87741,1.023647 -1.82794,1.882778 -2.85159,2.559116 -1.02365,0.639779 -2.12041,0.950529 -3.29029,0.950529 -1.22472,0 -2.19353,-0.29247 -2.92471,-0.877411 -0.67633,-0.584941 -1.18816,-1.316117 -1.53547,-2.193528 -0.3473,-0.877411 -0.5301,-1.82794 -0.58494,-2.851587 0,-1.078484 0.0731,-2.102131 0.21936,-3.070939 -0.49355,1.261278 -1.04193,2.467719 -1.68171,3.582762 -0.63978,1.115044 -1.37095,2.102132 -2.19353,2.924705 -0.78601,0.786014 -1.66342,1.407513 -2.63223,1.901057 -0.93225,0.438706 -1.9559,0.639779 -3.07094,0.584941"
       id="path10"
       style="fill:#1a1a1a;fill-opacity:1" />
  </g>
  <path
     style="fill:#1a1a1a"
     id="path24"
     d="m 183.38229,109.53941 c 4.81906,-2.93109 6.46878,-4.6481 8.5864,-8.92129 2.79491,-5.619665 2.83594,-7.224935 0.2559,-11.969809 -1.1251,-2.077939 -1.72154,-2.583396 -5.48994,-4.73225 -4.85373,-2.767383 -10.12772,-4.378644 -17.77607,-5.449327 -11.26555,-1.574945 -15.58143,-2.380383 -18.62826,-3.48262 -4.08409,-1.469131 -11.19213,-5.968303 -17.00816,-10.757789 -2.52761,-2.08165 -5.35044,-4.4003 -6.28605,-5.145225 -3.01661,-2.422895 -5.03144,-4.493849 -7.92044,-8.125614 -2.90146,-3.640247 -6.61894,-7.570128 -13.70388,-14.507881 -2.76715,-2.709629 -4.1946,-4.4364 -4.51425,-5.483746 -0.62526,-2.021306 -0.25816,-8.915816 0.64347,-11.761321 0.39375,-1.237981 0.6247,-2.531793 0.51866,-2.859272 -0.10604,-0.327479 0.39423,-1.292406 1.09026,-2.142601 0.70853,-0.841715 1.26663,-1.95896 1.24586,-2.465736 -0.0228,-0.517256 0.25307,-1.9174462 0.58792,-3.1224382 1.01009,-3.529105 0.17459,-4.716964 -3.80319,-5.402261 -1.427643,-0.248846 -3.290793,-0.72962 -4.131303,-1.090642 -0.84053,-0.361017 -1.76186,-0.576194 -2.03891,-0.490661 -0.27707,0.08554 -1.71378,-0.324578 -3.19303,-0.90043298 -4.33536,-1.703663 -6.8515,-0.255784 -4.59055,2.64835898 0.72051,0.927291 0.76211,1.20188 0.22762,1.760406 -0.34231,0.369672 -1.1201,1.474558 -1.72318,2.469997 l -1.09994,1.807577 1.42064,4.7055842 1.42066,4.705581 -0.79789,7.085486 c -0.43967,3.898264 -0.95395,7.46304 -1.15042,7.913518 -0.19647,0.450478 -0.87158,3.002769 -1.51418,5.668382 -4.08712,17.113733 -2.22062,26.200402 8.46017,40.981602 4.15191,5.748577 13.832523,14.157303 22.617263,19.640144 3.29403,2.05476 6.55213,4.14898 7.22397,4.65089 2.24028,1.65841 14.37218,6.91468 18.87656,8.19485 13.00378,3.67701 22.17889,3.69531 33.76154,0.0479 3.89584,-1.22248 6.51555,-2.29893 8.4327,-3.46937 z m -9.18196,1.99337 c 0.50263,-0.2699 1.37576,-0.53452 1.93942,-0.59875 0.56369,-0.0642 0.14939,0.1562 -0.91693,0.49033 -1.06831,0.32364 -1.52514,0.37832 -1.03297,0.11042 z m 4.8501,-1.91554 c 0.0937,-0.19178 0.47164,-0.31832 0.81468,-0.28605 0.38698,0.0347 0.31466,0.16808 -0.18504,0.33963 -0.44728,0.16153 -0.73389,0.14021 -0.64013,-0.0516 z m -13.96304,4.15652 c -0.0631,-0.21615 0.30286,-0.4056 0.80963,-0.42636 0.51727,-0.0227 0.95218,0.0354 0.98069,0.12777 0.0286,0.0923 -0.33735,0.2818 -0.80962,0.42636 -0.47225,0.14456 -0.91765,0.0884 -0.9807,-0.12777 z m 16.41441,-5.37469 c 0.0937,-0.19178 0.47166,-0.31832 0.81469,-0.28605 0.38697,0.0347 0.31464,0.16808 -0.18504,0.33962 -0.4473,0.16155 -0.7339,0.14022 -0.64014,-0.0516 z m -18.9287,5.63773 c -0.22231,-0.19659 -0.0727,-0.32298 0.35632,-0.29628 0.83685,0.0575 1.07318,0.32743 0.44567,0.51253 -0.22667,0.065 -0.5817,-0.0301 -0.80199,-0.21625 z m 7.18801,-3.32936 c -1.57885,0.77979 -6.93483,1.6401 -8.4209,1.36981 -0.46189,-0.0856 -2.10061,-0.13113 -3.64993,-0.10679 -4.32136,0.0758 -14.24295,-1.74502 -18.48242,-3.40181 -7.84268,-3.05479 -18.73606,-8.710698 -15.60961,-8.10181 1.35425,0.26286 1.70068,0.14234 1.08775,-0.39257 -0.27425,-0.240997 0.56369,-0.0642 1.8681,0.3929 1.29194,0.44864 2.40718,0.99625 2.48069,1.2104 0.19566,0.62549 5.55477,2.79644 8.56341,3.47129 1.51057,0.34168 3.17828,0.42512 3.72038,0.19114 0.59252,-0.25447 1.00447,-0.20278 1.04561,0.12624 0.13958,1.29908 11.79299,2.79992 18.15029,2.34598 5.54247,-0.39607 13.06816,-2.58373 18.52242,-5.37537 3.61237,-1.85293 4.87034,-2.32148 5.60343,-2.12467 0.73307,0.19681 1.11945,0.0578 1.6798,-0.59261 0.39967,-0.46757 0.86285,-0.773399 1.01916,-0.694593 0.55639,0.295766 -0.0342,1.299683 -1.62715,2.745043 -0.8883,0.81087 -1.77646,1.8499 -1.96893,2.32135 -0.31213,0.75511 -0.2557,0.76607 0.45389,0.0437 0.68416,-0.68492 0.79099,-0.69446 0.7584,-0.0688 -0.0505,0.75946 -0.44229,1.04078 -3.63944,2.56444 -4.08216,1.95355 -7.35636,3.18766 -8.64851,3.2498 -0.75392,0.0354 -2.05288,0.4031 -2.89796,0.81448 z m 16.57364,-5.39425 c 0.0757,-0.28614 0.34619,-0.57688 0.60229,-0.65841 0.25609,-0.0815 0.96168,-0.82488 1.55289,-1.65505 1.24376,-1.73726 2.03288,-2.21403 1.12802,-0.69366 -0.49084,0.84359 -2.81669,3.28747 -3.3039,3.46749 -0.0715,0.0245 -0.0675,-0.18272 -0.002,-0.46685 z m -0.35198,-2.63859 c 0.0978,-0.17081 0.48274,-0.14657 0.8683,0.0515 0.55638,0.29577 0.51398,0.3582 -0.16809,0.31465 -0.47285,-0.0292 -0.7875,-0.19728 -0.70221,-0.37658 z m 1.40461,-0.72477 c -0.0174,-0.1488 0.0992,-0.33409 0.26538,-0.43105 0.16822,-0.0865 0.46953,-0.55697 0.662,-1.02842 0.27574,-0.661224 0.33463,-0.694208 0.24808,-0.12348 -0.25273,1.63484 -1.0046,2.64784 -1.16498,1.58093 z m -13.4771,1.69471 c 0.0938,-0.19179 0.47166,-0.31832 0.8147,-0.28606 0.38697,0.0347 0.31466,0.16808 -0.18505,0.33963 -0.44727,0.16154 -0.73388,0.14022 -0.64013,-0.0516 z m 17.82147,-6.143399 c -0.0775,-0.235126 0.0691,-0.491346 0.32523,-0.572879 0.24561,-0.07954 0.397,0.08715 0.32127,0.373296 -0.0757,0.28614 -0.22238,0.54236 -0.32522,0.572877 -0.1029,0.03053 -0.25422,-0.136165 -0.32128,-0.373294 z m -26.94431,7.592999 c -2.59111,0.42984 -5.98163,0.8277 -7.52492,0.88349 -6.18167,0.23565 -16.09558,-1.26067 -22.0314,-3.32142 -1.59455,-0.55383 -4.32273,-1.46701 -6.04913,-2.02824 -4.25028,-1.372182 -11.30387,-4.903741 -15.53703,-7.77882 -1.92103,-1.295595 -3.58676,-2.335699 -3.70857,-2.290688 -0.28754,0.08755 2.39379,2.063753 5.76627,4.244788 1.42601,0.922897 2.53551,1.895399 2.46626,2.158571 -0.0693,0.263164 0.1501,0.558127 0.4697,0.638334 0.37802,0.101644 0.4249,0.0058 0.13817,-0.243732 -0.24928,-0.224042 -0.28286,-0.456698 -0.0667,-0.519731 0.21617,-0.06304 1.54568,0.639232 2.95074,1.566134 1.9255,1.26215 2.11835,1.475238 0.80284,0.846363 -0.96939,-0.466801 -1.70248,-0.663611 -1.63944,-0.447452 0.0631,0.21615 -1.92218,-0.675963 -4.4209,-1.980724 -4.55145,-2.37959 -9.86405,-6.069905 -10.42542,-7.244941 -0.1625,-0.338427 -0.62603,-0.71714 -1.0375,-0.82326 -0.40101,-0.108121 -0.60079,-0.243817 -0.43706,-0.296829 0.16374,-0.05302 -0.26636,-0.427253 -0.96411,-0.837282 C 98.748407,84.839303 90.923527,74.36993 87.090487,65.62639 c -2.72019,-6.217722 -3.08514,-16.830095 -0.84057,-24.420185 1.06946,-3.616516 1.66585,-6.751442 3.13638,-16.345278 0.49497,-3.267686 0.92481,-6.023053 0.95072,-6.114938 0.0259,-0.09189 1.76308,-0.782392 3.8712,-1.522038 l 3.82585,-1.361242 0.54688,1.156067 c 0.32894,0.697834 0.29838,2.301097 0.16805,4.064691 -0.58393,7.522746 0.19641,8.308204 -0.36031,10.968276 -0.50042,2.442849 1.07305,2.772497 12.147263,13.925078 1.28043,1.298452 3.55267,3.863566 5.03764,5.720618 3.9682,4.957794 7.30341,8.308702 10.47669,10.527795 1.54394,1.085106 4.19985,3.098777 5.90022,4.490861 5.37991,4.38381 13.42129,9.161057 18.81534,11.173194 4.65743,1.739929 7.22361,2.260252 19.8983,4.04411 4.0646,0.570909 10.05424,2.458377 10.99398,3.452453 1.05165,1.124823 1.80678,1.436956 1.1222,0.470203 -0.38678,-0.545509 -0.11517,-0.488738 0.92779,0.192209 1.12832,0.729841 1.3392,1.037294 0.89746,1.284692 -0.32394,0.181423 -0.39013,0.57441 -0.1478,0.875854 0.23184,0.303438 0.21458,0.611014 -0.052,0.69455 -0.67792,0.205604 -0.25192,1.297815 0.70252,1.80007 0.68974,0.3681 0.70837,0.636211 0.15242,1.992118 -0.35703,0.861491 -0.52567,1.969521 -0.37709,2.462743 0.2177,0.74082 -0.23849,1.197452 -2.61881,2.673715 -1.58473,0.976525 -3.26534,1.906164 -3.73359,2.071693 -0.47025,0.155051 -1.06171,0.528851 -1.29871,0.824071 -0.27493,0.3242 -0.99339,0.37454 -1.83283,0.13284 -1.35733,-0.39268 -1.38678,-0.37618 -1.8823,1.01164 -0.60071,1.69046 -1.68645,2.09351 -8.7259,3.24285 z m 19.20179,-12.796819 c -0.0795,-0.245618 -0.30323,-0.278937 -0.48936,-0.05864 -0.19659,0.222296 -0.32027,0.484997 -0.28975,0.58783 0.0306,0.102814 0.25221,0.125688 0.48935,0.05864 0.23512,-0.07753 0.36928,-0.342223 0.28976,-0.587833 z m -1.32855,-2.517216 c -0.62087,-1.315799 -6.76244,-2.576573 -13.2549,-2.716217 -12.07865,-0.256834 -20.09343,-3.017941 -34.29442,-11.823565 -7.2838,-4.509052 -8.3967,-5.328775 -13.5396,-10.007798 -5.82628,-5.29827 -10.49613,-10.45888 -17.86001,-19.766645 -6.775793,-8.561644 -7.809453,-10.559254 -8.296353,-16.008315 -0.16629,-1.837324 -0.49233,-3.60066 -0.73454,-3.902123 -0.24232,-0.301441 -0.12049,-2.052545 0.26594,-3.897671 0.83855,-4.028804 0.50668,-4.628275 -0.51931,-0.954864 -0.77536,2.767048 -0.88176,12.447993 -0.16696,14.76733 0.39316,1.261504 2.3814,3.989547 9.510983,13.037807 4.14562,5.260768 10.3023,12.060737 16.79232,18.557947 5.16166,5.175316 3.3026,3.976546 23.442,15.027168 7.62364,4.18332 14.61788,6.096192 26.06587,7.147273 2.40126,0.225828 6.02893,0.728077 8.0603,1.122379 4.27796,0.834421 5.15814,0.72059 4.53528,-0.605697 z m -41.69797,-9.963508 c -1.05634,-0.580588 -1.82654,-1.085445 -1.71522,-1.12845 0.1238,-0.03453 1.07872,0.413314 2.14553,0.991901 1.05634,0.580588 1.82654,1.085445 1.71523,1.12844 -0.12382,0.03453 -1.07872,-0.413306 -2.14554,-0.991891 z m -24.21367,16.481956 c -0.0286,-0.09234 -0.47451,-0.32228 -0.9899,-0.517217 -0.845,-0.327561 -0.86196,-0.30259 -0.11072,0.216759 0.78869,0.544791 1.21267,0.65939 1.10262,0.310944 z m 57.89718,5.510157 c -0.42598,-0.12509 -0.58583,-0.27929 -0.3487,-0.34632 0.23512,-0.0775 0.77688,-0.0289 1.21135,0.0837 0.42596,0.12509 0.58583,0.27928 0.3487,0.34632 -0.23513,0.0775 -0.77689,0.0289 -1.21135,-0.0837 z m 12.39232,-5.779861 c -0.48871,-1.59098 -0.17265,-1.58617 0.65308,0.0056 0.31291,0.613958 0.3961,1.16314 0.1714,1.238669 -0.22664,0.06504 -0.59444,-0.494971 -0.82453,-1.244289 z m 0.38258,-3.344009 c -0.0775,-0.235132 0.0691,-0.491348 0.32522,-0.572876 0.24562,-0.07954 0.39699,0.08716 0.32126,0.373296 -0.0757,0.286139 -0.22238,0.54236 -0.32523,0.572878 -0.10278,0.03051 -0.25421,-0.136166 -0.32125,-0.373298 z m -56.48123,14.81197 c -0.0639,0.12087 -1.00226,-0.29751 -2.08958,-0.92652 -1.08733,-0.629 -1.3406,-0.87402 -0.567,-0.52194 0.77161,0.34158 1.48419,0.48798 1.57995,0.30668 0.0978,-0.17082 1.16306,0.34286 2.3808,1.14255 1.21974,0.81017 2.37338,1.27437 2.56997,1.05208 0.23253,-0.26177 0.29449,-0.16494 0.19039,0.25702 -0.13204,0.50337 -0.65238,0.39631 -2.06036,-0.43223 -1.03938,-0.60556 -1.93184,-1.01099 -2.00617,-0.88812 z M 189.041,90.299784 c -0.0775,-0.235132 -0.0442,-0.458831 0.0586,-0.489346 0.10289,-0.03053 0.36754,0.103645 0.58783,0.28976 0.2223,0.196598 0.19746,0.407818 -0.0586,0.489346 -0.24561,0.07953 -0.5208,-0.05263 -0.58783,-0.28976 z m -4.33591,-0.910282 c 0.20848,-0.387567 1.21026,-0.03563 1.37533,0.487043 0.0875,0.287554 -0.16608,0.325138 -0.68347,0.119711 -0.44848,-0.185986 -0.76219,-0.462923 -0.68986,-0.596273 z m 2.48992,-2.779489 c -1.21466,-0.669879 -2.04484,-1.26108 -1.83914,-1.322108 0.20567,-0.06103 -0.24895,-0.506646 -1.02562,-0.988537 -0.77469,-0.471394 -0.0965,-0.220624 1.48772,0.563374 1.58622,0.794487 2.8394,1.609143 2.78311,1.826364 -0.0563,0.217236 0.29936,0.486151 0.80072,0.607697 0.49935,0.111067 0.69468,0.280215 0.44906,0.359741 -0.24559,0.07953 -1.44318,-0.387141 -2.66833,-1.055015 z m -1.49974,2.046966 c -0.01,-0.05242 -0.007,-0.433406 0.0305,-0.864298 0.0366,-0.60468 0.2238,-0.705638 0.80161,-0.4683 1.07425,0.446765 1.11149,0.982997 0.0796,1.212752 -0.48875,0.115117 -0.89316,0.159772 -0.91366,0.109355 z m -61.95692,14.988811 c -0.18804,-0.52915 0.0981,-0.45343 1.57053,0.42801 l 1.3975,0.83055 -1.42576,-0.46654 c -0.78703,-0.25171 -1.47476,-0.60932 -1.54027,-0.78154 z m -2.24898,-1.13514 c -0.0611,-0.20567 0.1106,-0.44494 0.38766,-0.53047 0.27705,-0.0855 0.41441,0.008 0.30169,0.21403 -0.11272,0.20627 0.1372,0.60406 0.55124,0.89443 0.66382,0.45998 0.63437,0.47647 -0.18565,0.16587 -0.51538,-0.19494 -0.99191,-0.5277 -1.05294,-0.73337 z m -1.82808,-1.15035 c -0.75123,-0.51935 -0.73427,-0.54433 0.11073,-0.21676 0.51539,0.19493 0.96339,0.43534 0.9899,0.51721 0.11205,0.35893 -0.31393,0.23385 -1.10263,-0.31094 z m -1.39836,-1.460664 c -0.75123,-0.519349 -0.73426,-0.544321 0.11074,-0.216754 0.51538,0.194932 0.96338,0.435338 0.98989,0.517208 0.11205,0.35894 -0.31393,0.23386 -1.10263,-0.310932 z m -3.71645,-2.104447 c -0.1664,-0.359416 -0.15011,-0.558135 0.0437,-0.453889 0.19378,0.104244 0.49207,0.471061 0.65854,0.830465 0.1665,0.359391 0.15011,0.558128 -0.0437,0.453883 -0.19379,-0.104244 -0.49207,-0.471064 -0.65854,-0.830459 z m 56.30547,-17.495105 c -0.42598,-0.125078 -0.58584,-0.279272 -0.34871,-0.346316 0.23512,-0.07753 0.77689,-0.02889 1.21134,0.0837 0.42598,0.125088 0.58584,0.27928 0.3487,0.346318 -0.23512,0.07753 -0.77688,0.0289 -1.21133,-0.0837 z m -60.23269,15.311388 c 0.19802,-0.385569 1.73676,0.331057 2.58756,1.200854 0.56652,0.57637 0.32185,0.547045 -0.99566,-0.09231 -0.95893,-0.4688 -1.67269,-0.96271 -1.5919,-1.108546 z m -1.7562,-1.229283 c -0.39866,-0.38024 -0.86222,-0.758947 -1.03952,-0.833745 -0.17729,-0.07479 -1.16838,-0.939521 -2.20247,-1.915561 -2.34845,-2.224554 -1.5878,-1.826545 1.70261,0.89178 1.38019,1.138125 2.74884,2.158918 3.045,2.28707 0.3296,0.13263 0.28273,0.228521 -0.1172,0.239733 -0.36648,0.01568 -0.98977,-0.289037 -1.38842,-0.669277 z m 30.0727,-23.980213 c -0.75124,-0.519348 -0.73428,-0.544319 0.11072,-0.216759 0.51538,0.194939 0.96338,0.435349 0.9899,0.517218 0.11205,0.358932 -0.31393,0.233846 -1.10262,-0.310945 z m -12.90782,-9.715567 c -0.75124,-0.519346 -0.73428,-0.544319 0.11072,-0.216758 0.51539,0.194935 0.9634,0.435345 0.9899,0.517215 0.11205,0.358932 -0.31393,0.233849 -1.10262,-0.310942 z m -41.343153,3.041504 c 0.0238,-0.330551 0.20414,-0.125938 0.38323,0.470122 0.17914,0.59605 0.16426,0.859699 -0.0471,0.606673 -0.21336,-0.263508 -0.35992,-0.746247 -0.33614,-1.076795 z M 117.21231,51.742949 c -0.0711,-0.258088 0.27151,-0.17141 0.76252,0.180317 0.49101,0.351729 0.94515,0.851771 1.01419,1.099385 0.0711,0.258087 -0.27152,0.171411 -0.76253,-0.180318 -0.49101,-0.351727 -0.94515,-0.85177 -1.01418,-1.099384 z m -2.33614,-3.411387 c 0.0347,-0.386965 0.16808,-0.314651 0.33962,0.185051 0.1616,0.447264 0.14021,0.73389 -0.0516,0.640129 -0.19177,-0.09376 -0.31831,-0.47166 -0.28604,-0.814696 z m -3.14081,-3.07291 c -1.05119,-1.179249 -1.0942,-1.290567 -0.28252,-0.7393 1.44852,0.9838 2.28434,1.889058 1.88547,2.0196 -0.20568,0.06103 -0.92298,-0.508268 -1.60295,-1.2803 z m -4.62646,-4.364756 c -2.14111,-1.992492 -3.57011,-3.784166 -2.86201,-3.604318 0.28615,0.07573 0.55639,0.295769 0.62591,0.488958 0.0591,0.195182 1.29797,1.447236 2.74769,2.778546 1.44971,1.331313 2.69468,2.614806 2.76172,2.851934 0.15061,0.503702 -0.89541,-0.307064 -3.27331,-2.51512 z m -5.51927,-27.579607 c -0.0775,-0.235129 -0.0442,-0.45883 0.0587,-0.489346 0.10278,-0.03051 0.36753,0.10365 0.58783,0.289763 0.2223,0.196597 0.19745,0.407815 -0.0586,0.489343 -0.24561,0.07953 -0.52079,-0.05263 -0.58784,-0.28976 z m -8.385093,1.102173 c -0.0582,-0.532221 -0.0386,-1.111915 0.0507,-1.270244 0.0893,-0.158326 -0.17763,-0.531137 -0.59164,-0.82151 -0.66381,-0.459982 -0.64687,-0.484952 0.21062,-0.148908 0.52788,0.203414 0.93607,0.690501 0.91184,1.075471 -0.0292,0.472854 0.1396,0.560137 0.52539,0.247356 0.73764,-0.575605 0.80468,-0.338475 0.21319,0.774281 -0.65537,1.233633 -1.19807,1.293853 -1.33053,0.145543 z m -4.51006,-1.594219 c -0.1486,-0.493217 -0.1714,-1.238672 -0.0464,-1.664633 0.18137,-0.643197 0.27126,-0.62777 0.50383,0.07761 0.3326,1.001404 1.45751,1.884031 2.47861,1.938878 0.53776,0.02766 0.47945,0.2344 -0.22473,0.81448 -1.08149,0.880373 -2.25161,0.38673 -2.71135,-1.166331 z m 10.63867,-2.445553 c 0.2503,-0.6237632 0.22627,-0.7495732 -0.0695,-0.4213912 -0.24101,0.2742502 -0.49663,0.3013552 -0.56166,0.07472 -0.0651,-0.2266362 -0.4631,-0.4331292 -0.87103,-0.4638582 -0.49584,-0.03567 -0.59961,0.103686 -0.31534,0.39712 0.24279,0.2470172 0.0487,0.1971712 -0.41349,-0.116603 -0.47252,-0.311794 -1.02135,-0.511206 -1.23751,-0.448173 -0.66744,0.203582 -2.21965,-1.37981 -2.65181,-2.731665 l -0.42014,-1.288951 1.96268,-0.135915 c 1.10389,-0.08051 2.04219,0.109695 2.13773,0.43918 0.11205,0.358932 0.4446,0.393195 0.87632,0.09338 0.48015,-0.330808 1.35105,-0.09513 2.842443,0.771812 l 2.14119,1.253534 -0.87048,1.415996 c -0.48189,0.776682 -1.32176,1.5565552 -1.884373,1.7401142 -0.90056,0.291597 -0.97748,0.230219 -0.65441,-0.581314 z m 0.59678,-2.4503862 c -0.11205,-0.358932 -0.27097,-0.621974 -0.36333,-0.593462 -0.0924,0.02852 -0.18952,0.373083 -0.22024,0.781024 -0.0222,0.395445 0.1388,0.668958 0.36332,0.593461 0.22665,-0.06504 0.332303,-0.422093 0.22025,-0.781023 z m -3.5549,-0.690029 c -0.1148,-0.0324 -0.64071,-0.225323 -1.15409,-0.409776 -0.79505,-0.293639 -0.90438,-0.240151 -0.71481,0.353907 0.13659,0.430311 0.57903,0.584849 1.15411,0.409773 0.5142,-0.152578 0.84014,-0.323518 0.71479,-0.353904 z m -6.72773,4.0890372 c -0.0775,-0.235129 -0.0442,-0.45883 0.0587,-0.489346 0.10289,-0.03053 0.36754,0.103647 0.58783,0.289762 0.22231,0.196598 0.19745,0.407815 -0.0586,0.489345 -0.24561,0.07953 -0.5208,-0.05263 -0.58784,-0.289761 z m -0.84679,-3.5220692 c -0.2223,-0.1966 -0.19744,-0.407817 0.0587,-0.489346 0.24561,-0.07952 0.5208,0.05263 0.58783,0.289762 0.0775,0.23513 0.0442,0.458831 -0.0586,0.489344 -0.10289,0.03053 -0.36755,-0.103644 -0.58784,-0.28976 z m 0.0166,-6.055996 c 0.0978,-0.170815 0.48272,-0.146564 0.86829,0.05144 0.55639,0.29577 0.51398,0.358206 -0.16808,0.314651 -0.47285,-0.02919 -0.7875,-0.19728 -0.70222,-0.376576 z" />
  <g
     transform="translate(-57.028965,-6.7527782)"
     id="g4325">
    <path
       d="m 72.898058,127.24946 c 0.23763,0.63978 0.31075,1.33439 0.21935,2.12041 -0.0914,0.78601 -0.38387,1.51719 -0.87741,2.19353 -0.43871,0.67633 -1.04193,1.26127 -1.82794,1.75482 -0.78602,0.4387 -1.73654,0.63978 -2.85159,0.58494 -0.96881,-0.0548 -1.95589,-0.31075 -2.9247,-0.80429 -0.93225,-0.53011 -1.75482,-1.29784 -2.486,-2.26665 -0.73118,-0.96881 -1.31612,-2.13869 -1.75482,-3.50964 -0.38387,-1.40752 -0.49355,-3.01611 -0.29247,-4.82577 0.29247,-2.86986 1.18816,-5.39242 2.70535,-7.53111 1.51719,-2.13869 3.41825,-3.93007 5.70317,-5.33758 2.33976,-1.40752 4.95372,-2.486 7.82359,-3.21718 2.86986,-0.73117 5.77629,-1.11504 8.70099,-1.16988 2.97954,-0.0548 5.86769,0.23763 8.70099,0.87741 2.83331,0.63978 5.35587,1.59031 7.604242,2.85159 2.24836,1.26128 4.0763,2.86986 5.48382,4.82576 1.40751,1.90106 2.17524,4.11286 2.26664,6.6537 0.0548,1.51719 -0.21935,2.9247 -0.80429,4.24082 -0.5301,1.31612 -1.31612,2.50428 -2.33977,3.58276 -0.9688,1.02365 -2.13869,1.90106 -3.50964,2.63224 -1.37096,0.73117 -2.833312,1.26128 -4.387062,1.60858 2.486002,0.43871 4.588132,1.40752 6.288122,2.92471 1.69998,1.46235 2.94298,3.16234 3.729,5.11823 0.78601,1.90106 1.07848,3.93007 0.87741,6.06876 -0.14624,2.13869 -0.85914,4.11287 -2.12041,5.92253 -1.22472,1.75482 -2.99783,3.21717 -5.33759,4.38705 -2.284922,1.16989 -5.191352,1.75483 -8.700992,1.75483 -1.55375,0 -2.99783,-0.16452 -4.31394,-0.51183 -1.31612,-0.3473 -2.486,-0.78601 -3.50965,-1.31611 -0.96881,-0.58494 -1.80966,-1.243 -2.486,-1.97418 -0.67633,-0.73117 -1.1516,-1.48063 -1.38923,-2.26664 -0.20107,-0.58494 -0.27419,-1.09677 -0.21935,-1.53547 0.0548,-0.49355 0.16451,-0.87741 0.36558,-1.16989 0.20108,-0.3473 0.43871,-0.56666 0.73118,-0.65805 0.29247,-0.14624 0.58494,-0.20108 0.87741,-0.14624 0,0.67634 0.16452,1.40751 0.51183,2.19353 0.38386,0.73118 0.95052,1.40751 1.6817,2.04729 0.73118,0.63978 1.6817,1.11505 2.85159,1.46235 1.16988,0.34731 2.55911,0.42043 4.1677,0.21936 2.04729,-0.23764 3.78384,-0.93225 5.19135,-2.0473 1.40751,-1.11504 2.486,-2.43116 3.217172,-3.94835 0.78602,-1.51719 1.22472,-3.12577 1.31612,-4.82576 0.0914,-1.75482 -0.16451,-3.36341 -0.80429,-4.82576 -0.58494,-1.46235 -1.553752,-2.70535 -2.924712,-3.729 -1.31611,-1.07848 -2.99782,-1.6817 -5.04511,-1.82794 -0.63978,-0.0548 -1.38924,0 -2.26665,0.14624 -0.87741,0.0914 -1.80966,0.23763 -2.77847,0.4387 -0.9688,0.20108 -1.95589,0.43871 -2.9247,0.73118 -0.96881,0.23763 -1.84622,0.51182 -2.63223,0.80429 -1.75483,7.60423 -4.18599,13.38052 -7.31176,17.32887 -3.07094,3.89352 -6.89134,5.57522 -11.47947,5.04512 -2.04729,-0.23763 -3.60104,-0.87741 -4.67952,-1.90106 -1.02365,-1.02364 -1.62687,-2.17525 -1.82794,-3.43653 -0.20108,-1.26127 0,-2.54083 0.58494,-3.80211 0.63978,-1.26128 1.5903,-2.26665 2.85158,-2.99782 0.58494,-0.34731 1.26128,-0.45699 2.0473,-0.36559 0.82257,0.0548 1.33439,0.23763 1.53547,0.58494 -0.73118,0.14623 -1.31612,0.58494 -1.75483,1.31612 -0.4387,0.67633 -0.71289,1.40751 -0.80429,2.19352 -0.0548,0.73118 0.0914,1.40752 0.4387,2.0473 0.38387,0.63978 1.00537,0.96881 1.82794,1.02364 1.31612,0.0548 2.50428,-0.31075 3.58277,-1.09676 1.11504,-0.82257 2.12041,-1.99245 2.99782,-3.50964 0.93225,-1.5172 1.75482,-3.30858 2.486,-5.41071 0.78601,-2.13869 1.48063,-4.53329 2.12041,-7.16552 0.96881,-3.89352 1.90106,-7.25693 2.77847,-10.09023 0.87741,-2.83331 1.80966,-5.17307 2.77847,-7.01929 0.9688,-1.84622 2.02901,-3.21718 3.14405,-4.09459 1.16988,-0.93225 2.54084,-1.38923 4.09459,-1.38923 1.16988,0 2.12041,0.21935 2.85159,0.65806 0.73117,0.38386 1.24299,0.85913 1.53547,1.38923 -1.16989,0.23763 -2.17525,0.7129 -2.99783,1.38924 -0.78601,0.63977 -1.51719,1.62686 -2.19352,2.99782 -0.63978,1.37095 -1.26128,3.14405 -1.90106,5.33758 -0.63978,2.19353 -1.3344,4.972 -2.12041,8.33541 1.46235,-0.23763 3.05266,-0.56666 4.75264,-0.95053 1.69999,-0.43871 3.1989,-0.85913 4.46018,-1.243 3.07093,-1.02365 5.33758,-2.41288 6.79993,-4.1677 1.517192,-1.80966 2.321492,-3.65588 2.412882,-5.55694 0.0914,-1.80966 -0.31075,-3.43653 -1.243,-4.89888 -0.932252,-1.51719 -2.193522,-2.77847 -3.802112,-3.80211 -1.60859,-1.07849 -3.45481,-1.91934 -5.55694,-2.55912 -2.10213,-0.63978 -4.2591,-1.02365 -6.50747,-1.16988 -2.19352,-0.20108 -4.38705,-0.12796 -6.58058,0.21935 -2.13869,0.34731 -4.09459,0.95053 -5.84941,1.82794 -1.75482,0.87741 -3.21717,2.04729 -4.38706,3.50965 -1.16988,1.46235 -1.84621,3.21717 -2.04729,5.26446 -0.0914,1.16988 0.0183,2.26665 0.36559,3.2903 0.38387,1.02364 0.93225,1.88277 1.60859,2.55911 0.73117,0.67634 1.55375,1.18816 2.486,1.53547 0.9688,0.29247 1.97417,0.31075 2.99782,0.0731"
       id="path18"
       style="fill:#1a1a1a;fill-opacity:1" />
    <g
       id="g4306"
       transform="translate(-187.77872,-46.473663)"
       style="fill:#1a1a1a;fill-opacity:1">
      <path
         d="m 303.92553,205.43195 c -1.75,-0.05 -3.1,-0.85 -4.02,-2.41 -0.93,-1.56 -1.46,-3.51 -1.61,-5.85 -0.19,-2.34 0,-4.87 0.58,-7.6 0.58,-2.78 1.54,-5.36 2.85,-7.75 1.36,-2.44 3.05,-4.51 5.05,-6.21 2.05,-1.75 4.44,-2.78 7.17,-3.07 1.95,-0.24 3.73,0 5.34,0.73 1.66,0.68 2.75,1.61 3.29,2.78 0.29,0.58 0.46,1.29 0.51,2.12 0.05,0.83 -0.1,1.61 -0.44,2.34 -0.34,0.73 -0.93,1.32 -1.75,1.75 -0.83,0.44 -1.97,0.56 -3.44,0.37 0.1,-1.17 -0.19,-2.12 -0.88,-2.85 -0.68,-0.73 -1.71,-1.05 -3.07,-0.95 -1.41,0.15 -2.75,0.83 -4.02,2.05 -1.22,1.22 -2.29,2.71 -3.22,4.46 -0.88,1.75 -1.61,3.63 -2.19,5.63 -0.58,2 -0.95,3.85 -1.1,5.56 -0.15,1.66 -0.07,3.05 0.22,4.17 0.29,1.12 0.88,1.68 1.75,1.68 1.02,0 2.07,-0.66 3.14,-1.97 1.07,-1.32 2.07,-2.88 3,-4.68 0.93,-1.85 1.75,-3.73 2.49,-5.63 0.73,-1.95 1.32,-3.51 1.75,-4.68 0.29,-0.83 0.88,-1.34 1.75,-1.54 0.88,-0.19 1.75,-0.15 2.63,0.15 0.88,0.29 1.58,0.78 2.12,1.46 0.58,0.68 0.71,1.49 0.37,2.41 -0.49,1.32 -1.1,2.8 -1.83,4.46 -0.68,1.66 -1.27,3.22 -1.75,4.68 -0.44,1.46 -0.66,2.71 -0.66,3.73 0.05,1.02 0.58,1.54 1.61,1.54 0.97,0 2,-0.54 3.07,-1.61 1.07,-1.12 2.07,-2.39 3,-3.8 0.97,-1.46 1.8,-2.88 2.49,-4.24 0.68,-1.36 1.15,-2.32 1.39,-2.85 0.19,-0.49 0.44,-0.88 0.73,-1.17 0.29,-0.29 0.51,-0.44 0.66,-0.44 0.19,0 0.32,0.15 0.37,0.44 0.05,0.24 -0.05,0.63 -0.29,1.17 -0.2,0.39 -0.49,1.05 -0.88,1.97 -0.34,0.93 -0.78,1.97 -1.32,3.14 -0.54,1.17 -1.17,2.39 -1.9,3.66 -0.73,1.22 -1.54,2.34 -2.41,3.36 -0.88,1.02 -1.83,1.88 -2.85,2.56 -1.02,0.63 -2.12,0.95 -3.29,0.95 -1.22,0 -2.19,-0.29 -2.92,-0.88 -0.68,-0.58 -1.19,-1.32 -1.54,-2.19 -0.34,-0.88 -0.54,-1.83 -0.58,-2.85 0,-1.07 0.07,-2.1 0.22,-3.07 -0.49,1.27 -1.05,2.46 -1.68,3.58 -0.63,1.12 -1.36,2.1 -2.19,2.92 -0.78,0.78 -1.66,1.41 -2.63,1.9 -0.93,0.44 -1.95,0.63 -3.07,0.58"
         id="path26"
         style="fill:#1a1a1a;fill-opacity:1" />
      <path
         d="m 340.69553,174.79195 c -0.39,1.66 -0.88,3.56 -1.46,5.7 -0.58,2.1 -1.22,4.27 -1.9,6.51 1.8,-3.07 3.7,-5.83 5.7,-8.26 1.61,-1.95 3.24,-3.44 4.9,-4.46 1.71,-1.02 3.27,-1.61 4.68,-1.75 1.41,-0.15 2.58,0.12 3.51,0.8 0.97,0.63 1.54,1.66 1.68,3.07 0.15,1.17 -0.02,2.61 -0.51,4.31 -0.49,1.66 -1.12,3.41 -1.9,5.26 -0.73,1.8 -1.51,3.63 -2.34,5.48 -0.83,1.8 -1.54,3.46 -2.12,4.97 -0.58,1.46 -0.95,2.71 -1.1,3.73 -0.1,0.97 0.17,1.56 0.8,1.75 0.68,0.19 1.49,0 2.41,-0.58 0.93,-0.58 1.9,-1.44 2.92,-2.56 1.02,-1.12 2.02,-2.46 3,-4.02 1.02,-1.56 1.93,-3.22 2.71,-4.97 0.39,-0.93 0.76,-1.61 1.1,-2.05 0.34,-0.44 0.61,-0.66 0.8,-0.66 0.19,0 0.27,0.22 0.22,0.66 -0.05,0.44 -0.27,1.12 -0.66,2.05 -0.39,0.97 -1.02,2.34 -1.9,4.09 -0.88,1.75 -1.95,3.51 -3.22,5.26 -1.22,1.71 -2.63,3.22 -4.24,4.53 -1.56,1.27 -3.22,1.9 -4.97,1.9 -1.27,0 -2.29,-0.39 -3.07,-1.17 -0.73,-0.78 -1.24,-1.85 -1.54,-3.22 -0.24,-1.41 -0.24,-3.07 0,-4.97 0.29,-1.9 0.8,-4 1.54,-6.29 0.29,-0.83 0.61,-1.73 0.95,-2.71 0.39,-0.97 0.76,-1.9 1.1,-2.78 0.34,-0.93 0.66,-1.75 0.95,-2.49 0.29,-0.73 0.49,-1.27 0.58,-1.61 -0.93,0 -2.12,0.58 -3.58,1.75 -1.46,1.17 -3,2.75 -4.61,4.75 -1.61,1.95 -3.17,4.19 -4.68,6.73 -1.46,2.53 -2.71,5.14 -3.73,7.82 l -0.37,1.02 c -0.54,1.51 -1.22,2.44 -2.05,2.78 -0.78,0.34 -1.46,0.19 -2.05,-0.44 -0.63,-0.68 -1.07,-1.83 -1.32,-3.44 -0.24,-1.61 -0.02,-3.66 0.66,-6.14 0.24,-0.88 0.66,-2.05 1.24,-3.51 0.54,-1.51 1.17,-3.19 1.9,-5.05 0.78,-1.85 1.58,-3.83 2.41,-5.92 0.83,-2.14 1.61,-4.34 2.34,-6.58 0.34,-0.97 0.85,-1.73 1.54,-2.27 0.68,-0.58 1.34,-0.88 1.97,-0.88 0.63,0 1.15,0.29 1.54,0.88 0.39,0.58 0.44,1.56 0.15,2.92"
         id="path28"
         style="fill:#1a1a1a;fill-opacity:1" />
      <path
         d="m 366.76553,205.43195 c -1.75,-0.05 -3.1,-0.85 -4.02,-2.41 -0.93,-1.56 -1.46,-3.51 -1.61,-5.85 -0.19,-2.34 0,-4.87 0.58,-7.6 0.58,-2.78 1.54,-5.36 2.85,-7.75 1.36,-2.44 3.05,-4.51 5.05,-6.21 2.05,-1.75 4.44,-2.78 7.17,-3.07 1.95,-0.24 3.73,0 5.34,0.73 1.66,0.68 2.75,1.61 3.29,2.78 0.29,0.58 0.46,1.29 0.51,2.12 0.05,0.83 -0.1,1.61 -0.44,2.34 -0.34,0.73 -0.93,1.32 -1.75,1.75 -0.83,0.44 -1.97,0.56 -3.44,0.37 0.1,-1.17 -0.19,-2.12 -0.88,-2.85 -0.68,-0.73 -1.71,-1.05 -3.07,-0.95 -1.41,0.15 -2.75,0.83 -4.02,2.05 -1.22,1.22 -2.29,2.71 -3.22,4.46 -0.88,1.75 -1.61,3.63 -2.19,5.63 -0.58,2 -0.95,3.85 -1.1,5.56 -0.15,1.66 -0.07,3.05 0.22,4.17 0.29,1.12 0.88,1.68 1.75,1.68 1.02,0 2.07,-0.66 3.14,-1.97 1.07,-1.32 2.07,-2.88 3,-4.68 0.93,-1.85 1.75,-3.73 2.49,-5.63 0.73,-1.95 1.32,-3.51 1.75,-4.68 0.29,-0.83 0.88,-1.34 1.75,-1.54 0.88,-0.19 1.75,-0.15 2.63,0.15 0.88,0.29 1.58,0.78 2.12,1.46 0.58,0.68 0.71,1.49 0.37,2.41 -0.49,1.32 -1.1,2.8 -1.83,4.46 -0.68,1.66 -1.27,3.22 -1.75,4.68 -0.44,1.46 -0.66,2.71 -0.66,3.73 0.05,1.02 0.58,1.54 1.61,1.54 0.97,0 2,-0.54 3.07,-1.61 1.07,-1.12 2.07,-2.39 3,-3.8 0.97,-1.46 1.8,-2.88 2.49,-4.24 0.68,-1.36 1.15,-2.32 1.39,-2.85 0.19,-0.49 0.44,-0.88 0.73,-1.17 0.29,-0.29 0.51,-0.44 0.66,-0.44 0.19,0 0.32,0.15 0.37,0.44 0.05,0.24 -0.05,0.63 -0.29,1.17 -0.2,0.39 -0.49,1.05 -0.88,1.97 -0.34,0.93 -0.78,1.97 -1.32,3.14 -0.54,1.17 -1.17,2.39 -1.9,3.66 -0.73,1.22 -1.54,2.34 -2.41,3.36 -0.88,1.02 -1.83,1.88 -2.85,2.56 -1.02,0.63 -2.12,0.95 -3.29,0.95 -1.22,0 -2.19,-0.29 -2.92,-0.88 -0.68,-0.58 -1.19,-1.32 -1.54,-2.19 -0.34,-0.88 -0.54,-1.83 -0.58,-2.85 0,-1.07 0.07,-2.1 0.22,-3.07 -0.49,1.27 -1.05,2.46 -1.68,3.58 -0.63,1.12 -1.36,2.1 -2.19,2.92 -0.78,0.78 -1.66,1.41 -2.63,1.9 -0.93,0.44 -1.95,0.63 -3.07,0.58"
         id="path30"
         style="fill:#1a1a1a;fill-opacity:1" />
      <path
         d="m 403.53553,174.79195 c -0.39,1.66 -0.88,3.56 -1.46,5.7 -0.58,2.1 -1.22,4.27 -1.9,6.51 1.8,-3.07 3.7,-5.83 5.7,-8.26 1.61,-1.95 3.24,-3.44 4.9,-4.46 1.71,-1.02 3.27,-1.61 4.68,-1.75 1.41,-0.15 2.58,0.12 3.51,0.8 0.97,0.63 1.54,1.66 1.68,3.07 0.15,1.17 -0.02,2.61 -0.51,4.31 -0.49,1.66 -1.12,3.41 -1.9,5.26 -0.73,1.8 -1.51,3.63 -2.34,5.48 -0.83,1.8 -1.54,3.46 -2.12,4.97 -0.58,1.46 -0.95,2.71 -1.1,3.73 -0.1,0.97 0.17,1.56 0.8,1.75 0.68,0.19 1.49,0 2.41,-0.58 0.93,-0.58 1.9,-1.44 2.92,-2.56 1.02,-1.12 2.02,-2.46 3,-4.02 1.02,-1.56 1.93,-3.22 2.71,-4.97 0.39,-0.93 0.76,-1.61 1.1,-2.05 0.34,-0.44 0.61,-0.66 0.8,-0.66 0.19,0 0.27,0.22 0.22,0.66 -0.05,0.44 -0.27,1.12 -0.66,2.05 -0.39,0.97 -1.02,2.34 -1.9,4.09 -0.88,1.75 -1.95,3.51 -3.22,5.26 -1.22,1.71 -2.63,3.22 -4.24,4.53 -1.56,1.27 -3.22,1.9 -4.97,1.9 -1.27,0 -2.29,-0.39 -3.07,-1.17 -0.73,-0.78 -1.24,-1.85 -1.54,-3.22 -0.24,-1.41 -0.24,-3.07 0,-4.97 0.29,-1.9 0.8,-4 1.54,-6.29 0.29,-0.83 0.61,-1.73 0.95,-2.71 0.39,-0.97 0.76,-1.9 1.1,-2.78 0.34,-0.93 0.66,-1.75 0.95,-2.49 0.29,-0.73 0.49,-1.27 0.58,-1.61 -0.93,0 -2.12,0.58 -3.58,1.75 -1.46,1.17 -3,2.75 -4.61,4.75 -1.61,1.95 -3.17,4.19 -4.68,6.73 -1.46,2.53 -2.71,5.14 -3.73,7.82 l -0.37,1.02 c -0.54,1.51 -1.22,2.44 -2.05,2.78 -0.78,0.34 -1.46,0.19 -2.05,-0.44 -0.63,-0.68 -1.07,-1.83 -1.32,-3.44 -0.24,-1.61 -0.02,-3.66 0.66,-6.14 0.24,-0.88 0.66,-2.05 1.24,-3.51 0.54,-1.51 1.17,-3.19 1.9,-5.05 0.78,-1.85 1.58,-3.83 2.41,-5.92 0.83,-2.14 1.61,-4.34 2.34,-6.58 0.34,-0.97 0.85,-1.73 1.54,-2.27 0.68,-0.58 1.34,-0.88 1.97,-0.88 0.63,0 1.15,0.29 1.54,0.88 0.39,0.58 0.44,1.56 0.15,2.92"
         id="path32"
         style="fill:#1a1a1a;fill-opacity:1" />
      <path
         d="m 442.90553,191.69195 c -1.41,0.83 -2.8,1.32 -4.17,1.46 -1.36,0.1 -2.66,0 -3.88,-0.29 -1.17,-0.34 -2.24,-0.8 -3.22,-1.39 -0.97,-0.63 -1.75,-1.29 -2.34,-1.97 -0.1,1.27 -0.05,2.49 0.15,3.66 0.19,1.17 0.56,2.22 1.1,3.14 0.54,0.93 1.24,1.68 2.12,2.27 0.88,0.58 1.95,0.95 3.22,1.1 2.05,0.19 3.88,0.05 5.48,-0.44 1.66,-0.49 3.12,-1.19 4.39,-2.12 1.27,-0.93 2.36,-2.02 3.29,-3.29 0.97,-1.27 1.8,-2.61 2.49,-4.02 0.24,-0.49 0.49,-0.88 0.73,-1.17 0.29,-0.29 0.51,-0.44 0.66,-0.44 0.19,-0.05 0.32,0.07 0.37,0.37 0.05,0.24 -0.05,0.66 -0.29,1.24 -1.07,2.73 -2.39,5.12 -3.95,7.17 -1.51,2 -3.14,3.66 -4.9,4.97 -1.75,1.32 -3.56,2.29 -5.41,2.92 -1.85,0.58 -3.63,0.83 -5.34,0.73 -1.66,-0.1 -3.22,-0.51 -4.68,-1.24 -1.41,-0.78 -2.58,-1.9 -3.51,-3.36 -0.93,-1.41 -1.41,-3.1 -1.46,-5.05 -0.1,-2 0.17,-4.05 0.8,-6.14 0.58,-2.14 1.46,-4.27 2.63,-6.36 1.17,-2.1 2.51,-3.95 4.02,-5.56 1.56,-1.61 3.22,-2.9 4.97,-3.88 1.8,-0.97 3.66,-1.41 5.56,-1.32 1.9,0.1 3.39,0.54 4.46,1.32 1.12,0.78 1.9,1.75 2.34,2.92 0.49,1.17 0.68,2.49 0.58,3.95 -0.1,1.41 -0.44,2.8 -1.02,4.17 -0.54,1.36 -1.27,2.66 -2.19,3.88 -0.88,1.17 -1.88,2.1 -3,2.78 m -2.71,-15.06 c -1.32,-0.19 -2.56,-0.02 -3.73,0.51 -1.12,0.54 -2.14,1.32 -3.07,2.34 -0.93,1.02 -1.71,2.24 -2.34,3.66 -0.63,1.36 -1.1,2.8 -1.39,4.31 0.44,0.44 1.1,0.85 1.97,1.24 0.93,0.39 2.19,0.46 3.8,0.22 0.88,-0.1 1.73,-0.46 2.56,-1.1 0.83,-0.63 1.56,-1.36 2.19,-2.19 0.63,-0.88 1.15,-1.8 1.54,-2.78 0.44,-0.97 0.68,-1.9 0.73,-2.78 0.1,-0.88 -0.05,-1.63 -0.44,-2.27 -0.34,-0.63 -0.95,-1.02 -1.83,-1.17"
         id="path34"
         style="fill:#1a1a1a;fill-opacity:1" />
    </g>
  </g>
</svg>
