<?xml version="1.0" encoding="UTF-8" standalone="no"?>
<svg
   xmlns:dc="http://purl.org/dc/elements/1.1/"
   xmlns:cc="http://creativecommons.org/ns#"
   xmlns:rdf="http://www.w3.org/1999/02/22-rdf-syntax-ns#"
   xmlns:svg="http://www.w3.org/2000/svg"
   xmlns="http://www.w3.org/2000/svg"
   height="299.65601"
   width="821.22076"
   xml:space="preserve"
   viewBox="0 0 821.22075 299.656"
   y="0px"
   x="0px"
   id="Layer_1"
   version="1.1"><metadata
     id="metadata44"><rdf:RDF><cc:Work
         rdf:about=""><dc:format>image/svg+xml</dc:format><dc:type
           rdf:resource="http://purl.org/dc/dcmitype/StillImage" /><dc:title></dc:title></cc:Work></rdf:RDF></metadata><defs
     id="defs42" /><path
     id="XMLID_847_"
     style="fill:#fdebdb;fill-opacity:1"
     d="m 260,189.656 c -18.334,21.116 -49.84,30 -80,30 -23.881,0 -45.804,-8.376 -63,-22.344 l 0,98.694 c 10.619,2.384 21.661,3.65 33,3.65 59.496,0 110.9,-34.64 135.148,-84.851 L 260,189.656 Z" /><path
     id="XMLID_848_"
     style="fill:#fdd473;fill-opacity:1"
     d="M 268.518,198.174 260,189.656 c -18.334,21.116 -49.84,30 -80,30 -23.881,0 -45.804,-8.376 -63,-22.344 l 0,40.026 c 15.984,7.882 33.973,12.318 53,12.318 40.8,0 76.837,-20.366 98.518,-51.482 z" /><path
     id="XMLID_849_"
     style="fill:#4a3827;fill-opacity:1"
     d="m 273.135,235.282 c 4.518,-6.474 8.553,-13.309 12.014,-20.477 l -25.148,-25.149 c -3.66,4.216 -7.859,7.929 -12.456,11.194 9.031,12.786 16.483,22.601 25.59,34.432 z" /><path
     id="XMLID_850_"
     style="fill:#fdd475;fill-opacity:1"
     d="M 80,119.656 C 80,78.66 104.682,43.448 139.986,28.012 L 139.986,0 C 61.813,5.154 0,70.18 0,149.656 c 0,79.369 61.646,144.33 139.668,149.639 l 0,-88.113 C 104.529,195.675 80,160.533 80,119.656 Z" /><path
     id="XMLID_851_"
     style="fill:#fd9071;fill-opacity:1"
     d="M 80,119.656 C 80,78.66 104.682,43.448 139.986,28.012 l 0,-14.572 C 88.236,26.767 50,73.746 50,129.656 c 0,55.795 38.08,102.692 89.668,116.129 l 0,-34.604 C 104.529,195.675 80,160.533 80,119.656 Z" /><path
     id="XMLID_852_"
     style="fill:#4a3818;fill-opacity:1"
     d="M 139.987,28.013 139.987,0 C 113.59,1.741 89.063,10.316 68.146,23.962 l 33.545,33.545 c 10.105,-12.706 23.227,-22.906 38.296,-29.494 z" /><g
     transform="translate(-7.253,0)"
     id="g10" /><g
     transform="translate(-7.253,0)"
     id="g12" /><g
     transform="translate(-7.253,0)"
     id="g14" /><g
     transform="translate(-7.253,0)"
     id="g16" /><g
     transform="translate(-7.253,0)"
     id="g18" /><g
     transform="translate(-7.253,0)"
     id="g20" /><g
     transform="translate(-7.253,0)"
     id="g22" /><g
     transform="translate(-7.253,0)"
     id="g24" /><g
     transform="translate(-7.253,0)"
     id="g26" /><g
     transform="translate(-7.253,0)"
     id="g28" /><g
     transform="translate(-7.253,0)"
     id="g30" /><g
     transform="translate(-7.253,0)"
     id="g32" /><g
     transform="translate(-7.253,0)"
     id="g34" /><g
     transform="translate(-7.253,0)"
     id="g36" /><g
     transform="translate(-7.253,0)"
     id="g38" /><text
     id="text4258"
     y="164.59645"
     x="127.1828"
     style="font-style:normal;font-variant:normal;font-weight:300;font-stretch:normal;font-size:135.84448242px;line-height:125%;font-family:Hipstelvetica;-inkscape-font-specification:'Hipstelvetica Light';letter-spacing:0px;word-spacing:0px;fill:#1a1a1a;fill-opacity:1;stroke:none;stroke-width:1px;stroke-linecap:butt;stroke-linejoin:miter;stroke-opacity:1"
     xml:space="preserve"><tspan
       y="164.59645"
       x="127.1828"
       id="tspan4260">LaBanane</tspan></text>
</svg>