<?xml version="1.0" encoding="UTF-8" standalone="no"?>
<svg
   xmlns:dc="http://purl.org/dc/elements/1.1/"
   xmlns:cc="http://creativecommons.org/ns#"
   xmlns:rdf="http://www.w3.org/1999/02/22-rdf-syntax-ns#"
   xmlns:svg="http://www.w3.org/2000/svg"
   xmlns="http://www.w3.org/2000/svg"
   version="1.1"
   id="svg4307"
   viewBox="0 0 127.55905 159.44882"
   height="45mm"
   width="36mm">
  <defs
     id="defs4309" />
  <metadata
     id="metadata4312">
    <rdf:RDF>
      <cc:Work
         rdf:about="">
        <dc:format>image/svg+xml</dc:format>
        <dc:type
           rdf:resource="http://purl.org/dc/dcmitype/StillImage" />
        <dc:title></dc:title>
      </cc:Work>
    </rdf:RDF>
  </metadata>
  <g
     transform="translate(-287.95794,-165.69547)"
     id="layer1">
    <path
       style="fill:#1a1a1a"
       id="path24"
       d="m 398.25974,322.33541 c 6.49272,-2.42657 8.87994,-4.11861 12.42143,-8.78812 4.66951,-6.13857 5.08924,-8.06671 3.06927,-14.38891 -0.87881,-2.7676 -1.48217,-3.51525 -5.5352,-6.97803 -5.22041,-4.45965 -11.2147,-7.62075 -20.19957,-10.67691 -13.23463,-4.499 -18.2583,-6.46649 -21.68174,-8.49956 -4.59081,-2.71514 -12.13285,-9.78499 -18.04844,-16.9073 -2.57085,-3.09552 -5.44339,-6.54518 -6.4009,-7.66009 -3.0824,-3.62019 -5.03678,-6.58454 -7.68633,-11.63443 -2.66267,-5.06301 -6.2435,-10.6638 -13.1953,-20.67176 -2.71513,-3.90875 -4.03991,-6.3222 -4.18419,-7.6601 -0.28857,-2.58397 1.7445,-10.82119 3.48901,-14.04788 0.76076,-1.40347 1.33789,-2.91188 1.28543,-3.33161 -0.0525,-0.41973 0.77388,-1.46906 1.81009,-2.33476 1.04934,-0.85258 1.98061,-2.07242 2.07242,-2.6889 0.0918,-0.6296 0.74765,-2.25605 1.42971,-3.6333 2.03307,-4.02679 1.29855,-5.65325 -3.34473,-7.39776 -1.66581,-0.6296 -3.80382,-1.63958 -4.73509,-2.26917 -0.93128,-0.6296 -1.99373,-1.1018 -2.34788,-1.06245 -0.35414,0.0393 -1.99372,-0.78699 -3.64641,-1.8232 -4.84003,-3.05617 -8.21099,-1.8888 -6.15169,2.138 0.65583,1.28543 0.64272,1.62646 -0.13116,2.17736 -0.49843,0.36726 -1.69204,1.52152 -2.64956,2.58397 l -1.7445,1.92814 0.62959,6.0074 0.6296,6.0074 -2.59709,8.36839 c -1.42971,4.60393 -2.87253,8.78813 -3.21356,9.28656 -0.34104,0.49843 -1.74451,3.42343 -3.13487,6.49272 -8.87994,19.71425 -8.72254,31.11257 0.76076,51.41707 3.68577,7.89619 13.4314,20.27826 22.77042,28.9221 3.50215,3.2398 6.9518,6.51895 7.64698,7.27972 2.32164,2.51838 15.75304,11.66065 20.89474,14.24462 14.84799,7.43712 25.91841,9.57512 40.74016,7.84373 4.98431,-0.57713 8.39463,-1.27231 10.9786,-2.24294 z m -11.54261,0.28857 c 0.66895,-0.20987 1.78386,-0.32792 2.47904,-0.27545 0.69518,0.0525 0.14428,0.22298 -1.21985,0.38038 -1.36412,0.14428 -1.92814,0.10493 -1.27231,-0.10493 z m 6.29597,-1.19361 c 0.1574,-0.20987 0.64271,-0.27545 1.04933,-0.1574 0.45909,0.13116 0.34103,0.27545 -0.30169,0.36726 -0.57713,0.0918 -0.91816,0 -0.76076,-0.20986 z m -17.81235,1.79697 c -0.0262,-0.27545 0.4591,-0.41973 1.07557,-0.32791 0.62961,0.0918 1.14114,0.26233 1.15426,0.38038 0.0131,0.11805 -0.4722,0.26233 -1.07556,0.32791 -0.60335,0.0656 -1.12803,-0.10493 -1.15427,-0.38038 z m 21.05216,-2.70202 c 0.1574,-0.20986 0.64272,-0.27545 1.04933,-0.1574 0.45908,0.13117 0.34103,0.27545 -0.30168,0.36727 -0.57713,0.0918 -0.91816,0 -0.76076,-0.20987 z m -24.14767,2.43969 c -0.22299,-0.28857 -0.0131,-0.40661 0.49843,-0.27545 0.99686,0.26233 1.21984,0.64271 0.41973,0.72141 -0.28857,0.0262 -0.69517,-0.17051 -0.91816,-0.44596 z m 9.44395,-2.36099 c -2.08554,0.57713 -8.74877,0.38038 -10.48016,-0.28856 -0.53778,-0.20987 -2.50527,-0.64272 -4.38095,-0.97063 -5.23352,-0.90505 -16.78925,-5.39092 -21.52434,-8.36839 -8.76189,-5.49586 -20.60618,-14.83488 -16.97288,-13.37894 1.57399,0.6296 2.01996,0.56402 1.40347,-0.22298 -0.27544,-0.35415 0.69518,0.0525 2.16424,0.90505 1.45595,0.83946 2.67579,1.75762 2.71514,2.03307 0.0918,0.80011 6.05987,4.65639 9.53577,6.1648 1.74451,0.76077 3.73823,1.24608 4.44653,1.08868 0.77388,-0.17051 1.25919,-0.0131 1.23296,0.3935 -0.13117,1.60022 13.58879,6.09922 21.36694,7.01738 6.78128,0.80011 16.36952,-0.10493 23.59676,-2.21671 4.78756,-1.40347 6.41402,-1.67892 7.25348,-1.27231 0.83947,0.40662 1.3379,0.32792 2.16424,-0.32791 0.59025,-0.4722 1.21985,-0.73453 1.39036,-0.60336 0.60337,0.48531 -0.34103,1.56087 -2.59708,2.93811 -1.2592,0.77388 -2.57086,1.82321 -2.91189,2.34788 -0.5509,0.83946 -0.48531,0.86569 0.53778,0.1574 0.98375,-0.66895 1.11491,-0.65583 0.93128,0.0918 -0.2361,0.90505 -0.77388,1.15426 -4.98431,2.25606 -5.37781,1.41659 -9.61447,2.15112 -11.18846,1.92814 -0.91816,-0.13117 -2.57085,0.0131 -3.68576,0.3148 z m 21.24889,-2.6889 c 0.1574,-0.32792 0.5509,-0.61648 0.87881,-0.65583 0.32792,-0.0394 1.35101,-0.77388 2.25607,-1.63958 1.9019,-1.81009 2.96434,-2.20359 1.52153,-0.57713 -0.787,0.90505 -4.15796,3.3185 -4.78756,3.42344 -0.0918,0.0131 -0.0394,-0.2361 0.10493,-0.56402 z m 0.18363,-3.26603 c 0.1574,-0.18364 0.61649,-0.0656 1.03622,0.26233 0.60336,0.48531 0.53778,0.55089 -0.27545,0.34103 -0.56402,-0.14428 -0.90505,-0.41973 -0.76075,-0.61648 z m 1.86256,-0.5509 c 0.0131,-0.18363 0.19675,-0.38038 0.41973,-0.45908 0.22299,-0.0656 0.69518,-0.56402 1.03621,-1.08868 0.48532,-0.73453 0.56402,-0.76076 0.32792,-0.0918 -0.68206,1.91503 -1.82321,2.96435 -1.77074,1.63958 z m -16.65808,-1.06245 c 0.1574,-0.20986 0.64271,-0.27545 1.04933,-0.1574 0.45909,0.13117 0.34103,0.27545 -0.30168,0.36727 -0.57713,0.0918 -0.91817,0 -0.76077,-0.20987 z m 22.92782,-3.30538 c -0.0394,-0.30168 0.19675,-0.57713 0.52466,-0.61648 0.3148,-0.0394 0.45908,0.19675 0.30168,0.52466 -0.1574,0.32792 -0.3935,0.60337 -0.52465,0.61648 -0.13118,0.0131 -0.27545,-0.22298 -0.30169,-0.52466 z m -34.27368,2.95124 c -3.22667,-0.0787 -7.41087,-0.38039 -9.28654,-0.66895 -7.51583,-1.14115 -19.13712,-5.23353 -25.82659,-9.08981 -1.79697,-1.03621 -4.87939,-2.7676 -6.83375,-3.84316 -4.81379,-2.63644 -12.51323,-8.52579 -16.95976,-12.97232 -2.01996,-2.00684 -3.7907,-3.64641 -3.9481,-3.62018 -0.36726,0.0393 2.41346,3.04305 5.98117,6.45337 1.50841,1.44282 2.62332,2.87253 2.47904,3.17422 -0.14428,0.30168 0.0525,0.70829 0.41973,0.87881 0.43285,0.20986 0.51155,0.10493 0.22298,-0.26233 -0.24921,-0.32792 -0.23609,-0.61648 0.0393,-0.64272 0.27544,-0.0262 1.71828,1.12803 3.20045,2.57086 2.03308,1.96749 2.21671,2.26917 0.77387,1.20672 -1.06244,-0.78699 -1.90191,-1.19361 -1.87567,-0.91816 0.0262,0.27545 -2.16424,-1.25919 -4.87938,-3.41031 -4.94496,-3.92187 -10.5064,-9.60136 -10.91301,-11.14912 -0.11805,-0.44596 -0.59025,-1.00997 -1.06244,-1.23296 -0.45909,-0.22298 -0.66895,-0.43284 -0.45909,-0.45908 0.20987,-0.0262 -0.22298,-0.57713 -0.97062,-1.23296 -5.14171,-4.45964 -12.17221,-18.90102 -14.78241,-30.33869 -1.84944,-8.1323 0.1574,-21.02591 4.61704,-29.66975 2.12489,-4.11862 3.56772,-7.76503 7.55516,-19.00596 1.35101,-3.83005 2.50527,-7.05673 2.55774,-7.16166 0.0525,-0.10494 2.30852,-0.53778 5.02366,-0.9444 l 4.93184,-0.76076 0.3935,1.52152 c 0.2361,0.91817 -0.17052,2.84631 -0.73453,4.94496 -2.43969,8.94552 -1.67893,10.07355 -2.96435,13.15595 -1.16738,2.83319 0.65583,3.59395 11.45079,19.60932 1.24608,1.86256 3.3972,5.48274 4.76132,8.06671 3.64642,6.89933 6.89934,11.71313 10.21784,15.12344 1.61334,1.66581 4.35471,4.70886 6.0861,6.78128 5.48274,6.53207 14.08723,14.15282 20.13398,17.82546 5.22041,3.17422 8.19788,4.39406 23.08522,9.47019 4.77444,1.62646 11.56884,5.28599 12.47388,6.70258 1.00998,1.60023 1.84945,2.15112 1.24608,0.82635 -0.34103,-0.74765 -0.0262,-0.61648 1.07556,0.44596 1.19361,1.14115 1.37725,1.56088 0.787,1.75763 -0.43285,0.14428 -0.60336,0.60336 -0.38038,1.02309 0.20986,0.41973 0.11805,0.787 -0.22298,0.82635 -0.8657,0.0918 -0.60337,1.50841 0.43284,2.33475 0.74765,0.60337 0.7083,0.93128 -0.27545,2.43969 -0.62959,0.95751 -1.08867,2.25606 -1.02309,2.88565 0.0918,0.9444 -0.56401,1.39036 -3.77758,2.62332 -2.13801,0.81323 -4.38095,1.54776 -4.98431,1.63958 -0.60336,0.0787 -1.40348,0.3935 -1.75762,0.69518 -0.40662,0.32791 -1.28543,0.22298 -2.24294,-0.26233 -1.54776,-0.787 -1.5871,-0.77388 -2.50527,0.78699 -1.11491,1.90191 -2.51839,2.13801 -11.28028,1.90191 z m 26.12828,-11.01795 c -0.0394,-0.3148 -0.30169,-0.40661 -0.57713,-0.18363 -0.28858,0.22298 -0.49843,0.51155 -0.48531,0.64271 0.0131,0.13117 0.27543,0.20987 0.57713,0.18363 0.30168,-0.0394 0.52465,-0.32791 0.48531,-0.64271 z m -1.02309,-3.34473 c -0.44597,-1.73139 -7.56828,-4.66951 -15.37266,-6.33532 -14.52008,-3.09552 -23.55741,-8.27658 -38.66775,-22.18017 -7.75191,-7.12232 -8.90617,-8.36839 -14.03475,-15.20214 -5.81065,-7.7388 -10.25718,-15.04474 -16.99911,-27.97771 -6.20416,-11.89676 -6.99115,-14.54631 -6.32221,-21.23578 0.22299,-2.25605 0.2361,-4.45964 0.0131,-4.87937 -0.22298,-0.41973 0.32792,-2.50527 1.21984,-4.64328 1.94126,-4.66951 1.67893,-5.46962 -0.40661,-1.27231 -1.57399,3.1611 -3.93498,14.82176 -3.60707,17.78611 0.18364,1.61334 1.95438,5.36469 8.47333,17.93039 3.79068,7.30595 9.65382,16.93354 15.98913,26.27255 5.03677,7.43712 3.06928,5.56144 24.82973,23.5443 8.23721,6.80752 16.23835,10.72938 29.81403,14.63813 2.8463,0.82634 7.1092,2.26917 9.47019,3.21357 4.97119,1.99372 6.05987,2.0593 5.6139,0.31479 z m -48.03299,-21.64239 c -1.14115,-0.9444 -1.95438,-1.73139 -1.8101,-1.75763 0.1574,-0.0131 1.20673,0.74765 2.36099,1.69204 1.14115,0.9444 1.95438,1.7314 1.81009,1.75763 -0.1574,0.0131 -1.20672,-0.74765 -2.36098,-1.69204 z m -33.0276,14.31021 c -0.0131,-0.11805 -0.49844,-0.49843 -1.07557,-0.85258 -0.94439,-0.59025 -0.97062,-0.56401 -0.18363,0.2361 0.82635,0.83946 1.31166,1.07556 1.2592,0.62959 z m 68.61293,20.00281 c -0.48531,-0.24921 -0.64271,-0.47219 -0.34103,-0.49843 0.30168,-0.0394 0.9444,0.14429 1.44283,0.38038 0.48531,0.24922 0.64271,0.4722 0.34103,0.49844 -0.30168,0.0393 -0.9444,-0.14429 -1.44283,-0.38039 z m 16.29081,-4.11861 c -0.22298,-2.03307 0.1574,-1.95437 0.78701,0.1574 0.2361,0.81323 0.20986,1.49529 -0.0787,1.53464 -0.28858,0.0262 -0.60337,-0.73453 -0.70831,-1.69204 z m 1.23296,-3.9481 c -0.0394,-0.30168 0.19675,-0.57713 0.52466,-0.61648 0.3148,-0.0394 0.45908,0.19675 0.30168,0.52467 -0.1574,0.32791 -0.39349,0.60336 -0.52465,0.61648 -0.13118,0.0131 -0.27545,-0.22298 -0.30169,-0.52467 z m -71.59039,4.85315 c -0.10494,0.13116 -1.14115,-0.59025 -2.30853,-1.60023 -1.16737,-1.00998 -1.41659,-1.36413 -0.56401,-0.76076 0.85257,0.59025 1.67891,0.93128 1.83631,0.73453 0.1574,-0.18363 1.32478,0.68206 2.6102,1.92814 1.28544,1.25919 2.57086,2.08554 2.85944,1.86256 0.34101,-0.26234 0.39349,-0.13117 0.1705,0.35414 -0.27544,0.57713 -0.87881,0.32792 -2.38721,-0.99686 -1.11492,-0.97063 -2.09867,-1.66581 -2.2167,-1.53464 z m 74.09567,-7.35842 c -0.0393,-0.30168 0.0525,-0.56401 0.18363,-0.57713 0.13117,-0.0131 0.41972,0.20987 0.64272,0.48532 0.22298,0.28856 0.14428,0.53778 -0.18364,0.57713 -0.31479,0.0393 -0.61649,-0.18363 -0.64271,-0.48532 z m -5.02366,-2.09865 c 0.34104,-0.41973 1.46906,0.2361 1.54776,0.90504 0.0394,0.36727 -0.27545,0.35415 -0.85258,-0.0131 -0.49843,-0.32792 -0.81323,-0.73453 -0.69518,-0.87882 z m 3.64642,-2.78072 c -1.31166,-1.08868 -2.17737,-1.99372 -1.91503,-2.01996 0.26234,-0.0262 -0.18363,-0.66894 -1.00997,-1.42971 -0.82635,-0.74764 -0.0656,-0.28856 1.6658,1.0231 1.7314,1.32477 3.05617,2.59708 2.93812,2.8463 -0.11805,0.24921 0.24922,0.65583 0.82635,0.91816 0.57713,0.24922 0.77388,0.49843 0.45908,0.53778 -0.3148,0.0394 -1.65269,-0.80011 -2.97747,-1.88879 z m -2.2823,2.12489 c 0,-0.0656 0.0918,-0.52467 0.23611,-1.03621 0.18362,-0.72142 0.43283,-0.80012 1.07555,-0.38039 1.19362,0.787 1.11492,1.44283 -0.18362,1.48218 -0.6165,0.0262 -1.11493,-0.0131 -1.12804,-0.0787 z m -78.24051,3.80381 c -0.10493,-0.68206 0.22298,-0.52466 1.79697,0.87881 l 1.49529,1.32478 -1.61335,-0.89193 c -0.89193,-0.48531 -1.63958,-1.07556 -1.67891,-1.29854 z m -2.45281,-1.88879 c -0.0262,-0.26233 0.2361,-0.51155 0.59025,-0.5509 0.35414,-0.0393 0.49842,0.10494 0.3148,0.32792 -0.18363,0.22298 0.0262,0.76076 0.45908,1.20673 0.69518,0.70829 0.65583,0.72141 -0.26233,0.1574 -0.57713,-0.35415 -1.07556,-0.8657 -1.1018,-1.12803 z m -1.94127,-1.81009 c -0.78699,-0.80011 -0.76075,-0.82635 0.18364,-0.2361 0.57713,0.35415 1.06244,0.74765 1.07556,0.85258 0.0525,0.45908 -0.43285,0.20987 -1.2592,-0.6296 z m -1.35099,-2.08554 c -0.78701,-0.80011 -0.76077,-0.82634 0.18363,-0.2361 0.57713,0.35415 1.06244,0.74765 1.07556,0.85258 0.0525,0.45908 -0.43285,0.20987 -1.25919,-0.6296 z m -4.00057,-3.3972 c -0.11805,-0.4722 -0.0525,-0.7083 0.1574,-0.53778 0.20987,0.17052 0.48532,0.68206 0.60335,1.15426 0.11805,0.4722 0.0525,0.7083 -0.1574,0.53778 -0.20986,-0.17051 -0.48531,-0.68206 -0.60335,-1.15426 z m 71.99701,-8.13229 c -0.48531,-0.24922 -0.64271,-0.4722 -0.34102,-0.49843 0.30168,-0.0393 0.9444,0.14428 1.44283,0.38038 0.48531,0.24922 0.64271,0.4722 0.34103,0.49843 -0.30168,0.0393 -0.94441,-0.14428 -1.44284,-0.38038 z m -76.23368,4.59081 c 0.32791,-0.41973 2.01997,0.80011 2.84631,2.04619 0.5509,0.82634 0.26232,0.73453 -1.18049,-0.34103 -1.04933,-0.787 -1.79697,-1.54776 -1.66581,-1.70516 z m -1.83631,-1.88879 c -0.3935,-0.5509 -0.86571,-1.11491 -1.06245,-1.24608 -0.19675,-0.13116 -1.19362,-1.40347 -2.2167,-2.82007 -2.32164,-3.22668 -1.49529,-2.57085 1.84944,1.46906 1.40347,1.69204 2.82007,3.2398 3.14798,3.46278 0.36725,0.2361 0.28857,0.34104 -0.19675,0.26234 -0.44596,-0.0656 -1.12802,-0.57713 -1.52152,-1.12803 z m 41.82884,-22.00966 c -0.78701,-0.80011 -0.76077,-0.82634 0.18362,-0.2361 0.57713,0.35415 1.06244,0.74765 1.07556,0.85258 0.0525,0.45908 -0.43285,0.20987 -1.25918,-0.62959 z m -13.3396,-14.70371 c -0.787,-0.80011 -0.76075,-0.82634 0.18363,-0.23609 0.57713,0.35414 1.06245,0.74764 1.07556,0.85257 0.0525,0.45909 -0.43284,0.20987 -1.25919,-0.62959 z m -50.60383,-5.86312 c 0.10493,-0.39349 0.27545,-0.10493 0.35415,0.65583 0.0787,0.76077 0,1.07556 -0.19675,0.72142 -0.19676,-0.36727 -0.26233,-0.98375 -0.1574,-1.37725 z m 42.02559,-6.96491 c -0.0262,-0.32792 0.36725,-0.14428 0.87881,0.3935 0.51155,0.53778 0.94439,1.24607 0.97063,1.56087 0.0262,0.32792 -0.36727,0.14428 -0.87881,-0.3935 -0.51155,-0.53778 -0.9444,-1.24607 -0.97063,-1.56087 z m -2.03308,-4.65639 c 0.13117,-0.45909 0.27544,-0.34104 0.36726,0.30168 0.0918,0.57713 0,0.91816 -0.20987,0.76076 -0.20987,-0.1574 -0.27545,-0.64271 -0.1574,-1.04933 z m -3.08241,-4.43342 c -0.99686,-1.6658 -1.02308,-1.81009 -0.17052,-0.95751 1.52154,1.52153 2.32164,2.80696 1.81009,2.87254 -0.26233,0.0262 -0.99686,-0.82635 -1.63957,-1.91503 z m -4.57769,-6.33531 c -2.12489,-2.89877 -3.43655,-5.39093 -2.62332,-5.01055 0.32791,0.1574 0.60336,0.48532 0.64271,0.73453 0.0262,0.24922 1.23296,2.04619 2.6758,3.98745 1.44283,1.94126 2.64954,3.77758 2.67579,4.07926 0.0656,0.64272 -1.00998,-0.57713 -3.37097,-3.79069 z m -0.30169,-34.56225 c -0.0393,-0.30168 0.0525,-0.56401 0.18364,-0.57713 0.13116,-0.0131 0.41973,0.20987 0.64271,0.48532 0.22298,0.28856 0.14428,0.53778 -0.18363,0.57713 -0.3148,0.0393 -0.61648,-0.18363 -0.64272,-0.48532 z m -10.37523,-0.60336 c 0.0525,-0.65583 0.20988,-1.35101 0.35415,-1.52153 0.14428,-0.17051 -0.0918,-0.68206 -0.52466,-1.12802 -0.69517,-0.7083 -0.66894,-0.73453 0.28858,-0.13117 0.59024,0.36727 0.97062,1.04933 0.85258,1.50841 -0.1443,0.56401 0.0393,0.7083 0.57711,0.41973 1.0231,-0.52466 1.04934,-0.22298 0.0787,0.98375 -1.07556,1.33789 -1.74451,1.28542 -1.63957,-0.13117 z m -5.07612,-2.96435 c -0.0656,-0.6296 0.0787,-1.53464 0.32791,-2.01996 0.36727,-0.73453 0.47221,-0.69518 0.59025,0.20987 0.17052,1.28542 1.32478,2.6102 2.54462,2.91188 0.64272,0.1574 0.52467,0.3935 -0.45908,0.93128 -1.50841,0.81323 -2.80695,-0.0525 -3.0037,-2.03307 z m 13.40518,-0.49843 c 0.44595,-0.69518 0.44595,-0.85258 0.0131,-0.52467 -0.35414,0.27545 -0.66894,0.24922 -0.69518,-0.0393 -0.0262,-0.28856 -0.45908,-0.62959 -0.94439,-0.76076 -0.59025,-0.1574 -0.74765,-0.0131 -0.47221,0.40662 0.2361,0.35414 0.0131,0.24921 -0.4722,-0.2361 -0.49843,-0.48532 -1.11491,-0.85258 -1.39036,-0.82635 -0.85258,0.0918 -2.36099,-2.17735 -2.57085,-3.90875 l -0.20987,-1.65269 2.40034,0.28857 c 1.35101,0.1574 2.43969,0.60336 2.47904,1.02309 0.0525,0.45908 0.44596,0.57713 1.03621,0.3148 0.65583,-0.28856 1.65269,0.19675 3.25292,1.58711 l 2.2954,2.00684 -1.37724,1.50841 c -0.76076,0.82634 -1.95438,1.57399 -2.67579,1.66581 -1.15426,0.14428 -1.23296,0.0525 -0.65583,-0.85258 z m 1.28542,-2.82007 c -0.0525,-0.45908 -0.18363,-0.81323 -0.30168,-0.80011 -0.11805,0.0131 -0.3148,0.40661 -0.44596,0.89192 -0.11805,0.4722 0.0131,0.83947 0.30168,0.80012 0.28857,-0.0262 0.49843,-0.43285 0.44596,-0.89193 z m -4.13172,-1.65269 c -0.13117,-0.0656 -0.72142,-0.41973 -1.29855,-0.76077 -0.89193,-0.53778 -1.03621,-0.49843 -0.94439,0.26234 0.0656,0.55089 0.56401,0.83946 1.29854,0.76076 0.65583,-0.0656 1.08868,-0.19675 0.9444,-0.26233 z m -9.06358,3.38408 c -0.0394,-0.30168 0.0525,-0.56401 0.18364,-0.57713 0.13116,-0.0131 0.41973,0.20987 0.64271,0.48531 0.22298,0.28857 0.14428,0.53778 -0.18363,0.57713 -0.3148,0.0393 -0.61648,-0.18363 -0.64272,-0.48531 z m -0.20986,-4.44653 c -0.223,-0.28856 -0.1443,-0.53778 0.18362,-0.57713 0.31481,-0.0393 0.61649,0.18363 0.64272,0.48532 0.0393,0.30168 -0.0525,0.56401 -0.18363,0.57713 -0.13118,0.0131 -0.41973,-0.20987 -0.64271,-0.48532 z m 1.41658,-7.30594 c 0.1574,-0.18364 0.61649,-0.0656 1.03622,0.26233 0.60335,0.48531 0.53778,0.5509 -0.27545,0.34103 -0.56401,-0.14428 -0.90504,-0.41973 -0.76076,-0.61648 z" />
  </g>
</svg>
