<?xml version="1.0" standalone="no"?>
<!DOCTYPE svg PUBLIC "-//W3C//DTD SVG 20010904//EN"
 "http://www.w3.org/TR/2001/REC-SVG-20010904/DTD/svg10.dtd">
<svg version="1.0" xmlns="http://www.w3.org/2000/svg"
 width="16.000000pt" height="16.000000pt" viewBox="0 0 16.000000 16.000000"
 preserveAspectRatio="xMidYMid meet">
<metadata>
Created by potrace 1.11, written by Peter Selinger 2001-2013
</metadata>
<g transform="translate(0.000000,16.000000) scale(0.002286,-0.002286)"
fill="#000000" stroke="none">
<path d="M3310 6990 c-30 -4 -82 -10 -115 -14 -33 -4 -67 -9 -75 -11 -8 -2
-31 -6 -50 -9 -437 -66 -964 -279 -1362 -552 -260 -178 -539 -430 -718 -649
-45 -55 -89 -109 -98 -120 -43 -52 -171 -241 -228 -337 -153 -257 -287 -567
-361 -833 -27 -98 -71 -289 -79 -345 -3 -19 -7 -42 -9 -50 -2 -8 -7 -42 -11
-75 -3 -33 -7 -62 -9 -65 -9 -15 -20 -241 -20 -430 0 -185 6 -308 19 -410 13
-99 18 -136 22 -154 2 -12 7 -37 10 -56 18 -118 85 -374 141 -535 162 -464
435 -909 773 -1260 107 -111 239 -233 327 -302 20 -15 59 -46 87 -69 187 -150
583 -375 805 -459 119 -44 269 -97 285 -101 11 -2 40 -10 65 -18 159 -51 382
-94 626 -122 89 -10 496 -12 600 -3 337 30 519 67 830 166 77 24 154 51 170
58 17 7 75 32 130 55 94 40 282 134 352 176 17 10 57 34 90 53 257 150 633
473 839 721 176 212 331 441 434 641 l52 102 -293 293 -294 294 -87 -85 c-195
-189 -415 -324 -708 -433 -122 -46 -365 -112 -464 -127 -21 -3 -48 -7 -60 -10
-176 -38 -604 -53 -806 -29 -442 53 -805 200 -1167 471 -473 356 -808 928
-889 1520 -32 236 -25 560 16 753 5 25 12 56 14 70 23 139 120 409 209 580
223 428 586 785 1020 1005 l117 59 0 328 0 327 -37 -2 c-21 0 -63 -4 -93 -7z"/>
</g>
</svg>
